<svg width="46" height="46" viewBox="0 0 46 46" fill="none" xmlns="http://www.w3.org/2000/svg">
<rect width="46" height="46" rx="15" fill="#618AF5"/>
<path d="M18.6778 29.2466C18.5077 30.0631 16.1961 32.1961 15.0615 33.1606C14.8618 33.2429 14.5822 33.4076 15.0615 33.4076C15.6607 33.4076 21.4966 33.3309 23.2615 33.4076C24.5331 33.4629 26.2402 35.8593 27.15 37.4063C27.3216 37.6981 27.6312 37.8835 27.9697 37.8835C28.342 37.8835 28.6674 37.5105 28.7072 37.1403C28.825 36.047 29.3253 34.1807 29.7345 32.8123C29.9022 32.2515 30.0459 31.6547 30.4643 31.2454C31.4513 30.2798 33.7861 28.9138 35.4623 28.019C35.9498 27.7588 36.7201 27.1514 36.2056 26.9498C35.66 26.7361 33.9933 26.3117 32.7596 25.3757C31.5258 24.4398 31.5684 22.1424 29.3986 20.1854C27.2289 18.2284 22.7117 18.3208 20.2944 20.7383C18.5293 22.5036 18.8905 28.2259 18.6778 29.2466Z" fill="white"/>
<ellipse cx="11.9635" cy="25.5635" rx="2.38256" ry="2.7842" fill="white"/>
<ellipse cx="30.5509" cy="14.3389" rx="2.38256" ry="2.7842" fill="white"/>
<path d="M13.375 13.8281C12.8277 13.9275 12.3615 14.1959 11.9834 14.7011C11.2446 15.688 11.5332 17.3131 12.7551 17.1498C12.7956 17.1443 12.8345 17.1378 12.8713 17.1301V18.8092C12.8713 19.1337 13.1344 19.3968 13.459 19.3968C13.7835 19.3968 14.0466 19.1337 14.0466 18.8092V17.1301H15.138V17.6919C15.138 18.0462 15.4253 18.3334 15.7796 18.3334C16.1012 18.3334 16.3713 18.0942 16.3651 17.7727C16.3628 17.6511 16.3557 17.5186 16.3413 17.382C16.2853 16.8503 16.6211 16.7664 17.1808 16.5705C17.7405 16.3746 18.0763 15.4511 17.9084 14.9754C17.7741 14.5948 16.4906 14.1825 15.8656 14.0239V12.55C15.8656 12.0812 15.4856 11.7012 15.0168 11.7012H14.2661C14.2528 11.7012 14.2416 11.7114 14.2404 11.7247L14.1356 12.8622C14.0949 13.3041 13.8116 13.7489 13.375 13.8281Z" fill="white"/>
<path d="M22.0928 10.4493C21.48 10.5658 20.5972 11.0121 20.3056 11.6536C20.0503 12.4569 20.7067 12.7834 21.5456 12.8929C22.3845 13.0023 22.0928 14.6071 22.6398 14.826C23.1869 15.0448 24.0148 15.115 24.4503 14.2355C25.1152 12.8929 26.2872 13.4035 26.6519 12.1634C26.8737 11.4092 25.8167 10.9024 24.8591 10.6333C24.3856 10.5002 24.0258 10.0871 24.0258 9.59529V8.77367C24.0258 8.41003 23.731 8.11523 23.3674 8.11523C22.9778 8.11523 22.675 8.45216 22.6709 8.84169C22.6633 9.55704 22.5376 10.3647 22.0928 10.4493Z" fill="white"/>
</svg>
