<svg width="46" height="46" viewBox="0 0 46 46" fill="none" xmlns="http://www.w3.org/2000/svg">
<rect width="46" height="46" rx="15" fill="#DDEDFF"/>
<path d="M18.8383 25.6045C17.5329 25.266 14.5354 24.5891 12.9882 24.589C11.2485 24.5888 9.89616 26.3649 10.1002 28.0926C10.2006 28.9426 10.5608 29.7349 11.0079 30.2824C11.2131 30.5337 11.4421 30.7635 11.6823 30.9815C14.144 33.216 21.0848 34.2558 24.3984 34.5013C24.3984 34.2704 24.0936 33.3516 23.6791 32.211L23.6619 32.1636C22.5306 29.0513 21.3764 25.8757 21.8105 22.5934C21.9617 21.4499 22.1577 20.3471 22.3194 19.5618C22.6051 18.4709 22.7062 17.484 22.6956 16.6254C22.6665 14.2766 20.3478 11.0818 18.0468 11.554C14.9359 12.1924 14.5037 16.2959 16.4861 18.7768C17.2032 19.6742 18.0669 20.119 18.4999 20.5279C19.1961 21.1854 19.0156 24.1863 18.8383 25.6045Z" fill="#4581F7"/>
<ellipse cx="31.4674" cy="22.3942" rx="4.46008" ry="5.05439" fill="#4581F7"/>
</svg>
