<svg width="68" height="50" viewBox="0 0 68 50" fill="none" xmlns="http://www.w3.org/2000/svg">
<path fill-rule="evenodd" clip-rule="evenodd" d="M64.365 29.4653C63.5035 28.2968 62.0387 27.341 60.2647 27.341C56.979 27.341 54.6094 29.8487 54.6094 33.2454C54.6094 36.6433 56.979 39.1505 60.2647 39.1505C61.7997 39.1505 63.2346 38.4959 63.985 37.8438C64.0354 37.7999 64.0612 37.7367 64.0612 37.67V35.8276C64.0612 35.7121 63.9676 35.6178 63.8517 35.6178H59.6259C59.4578 35.6178 59.3215 35.4813 59.3215 35.3136V32.5795C59.3215 32.4112 59.4578 32.2747 59.6259 32.2747H67.2029V28.2167L64.7565 29.5566C64.6262 29.6281 64.4533 29.5849 64.365 29.4653ZM28.7961 31.3852H33.3095C34.6021 31.3852 35.4101 30.6567 35.4101 29.4978C35.4101 28.3918 34.6021 27.6104 33.3095 27.6104H28.7961C28.6412 27.6104 28.5164 27.7361 28.5164 27.8906V31.1053C28.5164 31.2598 28.6412 31.3852 28.7961 31.3852ZM47.146 41.9734C47.146 42.1123 47.0337 42.224 46.8957 42.224H43.5728C43.4341 42.224 43.3218 42.1123 43.3218 41.9734V24.4913C43.3218 24.3531 43.4341 24.2406 43.5728 24.2406H46.8957C47.0337 24.2406 47.146 24.3531 47.146 24.4913V41.9734ZM66.2478 0.11691L33.2936 24.2406H34.1443C37.5645 24.2406 39.3145 26.4239 39.3145 28.8234C39.3145 30.6904 38.3401 32.0693 37.0326 32.6788C36.8152 32.7803 36.8231 33.0881 37.0452 33.1788C38.5695 33.8034 39.6651 35.4364 39.6651 37.3437C39.6651 40.0672 37.8875 42.224 34.4409 42.224H24.9722C24.8173 42.224 24.6918 42.099 24.6918 41.9439V30.537L0.246945 48.4319C-0.221325 48.7752 0.0206144 49.5182 0.60175 49.5182H66.6026C66.934 49.5182 67.203 49.2488 67.203 48.917V39.8665C65.4368 41.5152 63.1146 42.5479 60.2642 42.5479C54.9865 42.5479 50.6778 38.9084 50.6778 33.2456C50.6778 27.5563 54.9865 23.9438 60.2642 23.9438C63.5829 23.9438 65.806 25.449 67.203 27.2877V0.601936C67.203 0.110252 66.6447 -0.173407 66.2478 0.11691ZM28.7961 38.8535H33.471C34.898 38.8535 35.7595 38.0987 35.7595 36.8045C35.7595 35.6727 34.9527 34.7554 33.471 34.7554H28.7961C28.6412 34.7554 28.5164 34.8811 28.5164 35.0355V38.5735C28.5164 38.728 28.6412 38.8535 28.7961 38.8535Z" fill="#191A15"/>
</svg>
