<svg width="61" height="50" viewBox="0 0 61 50" fill="none" xmlns="http://www.w3.org/2000/svg">
<path fill-rule="evenodd" clip-rule="evenodd" d="M12.7639 26.354L32.04 6.84187C33.3497 5.51619 35.0922 4.78724 36.9496 4.78724C38.8057 4.78724 40.5483 5.5155 41.8566 6.84118L43.3584 8.36139L46.3627 5.32028L44.8609 3.80007C42.7511 1.66444 39.9417 0.488281 36.9483 0.488281C33.9563 0.488974 31.1462 1.66513 29.0364 3.80145L9.76025 23.3129L12.7639 26.354Z" fill="#191A15"/>
<path fill-rule="evenodd" clip-rule="evenodd" d="M38.5546 13.3229L35.536 10.2863L16.1694 29.7695C13.4498 32.5055 9.0247 32.5061 6.30574 29.7709C3.5861 27.035 3.5861 22.5827 6.30574 19.8468L23.0173 3.03592L19.9988 0L3.28789 16.8109C-1.09596 21.221 -1.09596 28.3974 3.28789 32.8068C5.40767 34.9393 8.23038 36.1144 11.2366 36.1144C14.2434 36.1144 17.0675 34.9386 19.1873 32.8061L38.5546 13.3229Z" fill="#191A15"/>
<path fill-rule="evenodd" clip-rule="evenodd" d="M57.7154 16.971C55.5963 14.8385 52.7735 13.6641 49.766 13.6641C46.7591 13.6648 43.935 14.8392 41.8152 16.9724L22.4492 36.4553L25.4664 39.492L44.8338 20.0084C47.5541 17.2724 51.9785 17.2731 54.6975 20.0077C56.0127 21.3307 56.7369 23.092 56.7369 24.9688C56.7369 26.8462 56.0127 28.6082 54.6975 29.9313L37.9866 46.7425L41.0051 49.7785L57.7154 32.9679C62.0999 28.5578 62.0999 21.3812 57.7154 16.971Z" fill="#191A15"/>
<path fill-rule="evenodd" clip-rule="evenodd" d="M48.24 23.4258L28.9642 42.9379C26.2568 45.6772 21.8533 45.6786 19.1472 42.9386L17.6454 41.4184L14.6411 44.4595L16.1429 45.9797C18.2527 48.1154 21.062 49.2915 24.056 49.2915C27.048 49.2908 29.8574 48.1147 31.9678 45.9783L51.2436 26.4669L48.24 23.4258Z" fill="#191A15"/>
</svg>
