<svg width="71" height="28" viewBox="0 0 71 28" fill="none" xmlns="http://www.w3.org/2000/svg">
<path d="M40.4596 0.526855C39.0967 1.20981 38.5053 2.48259 38.5053 5.93729C39.0207 5.46255 39.6231 5.09208 40.2793 4.84633C40.9134 4.6053 41.5106 4.27637 42.0532 3.8692C43.2358 2.98224 43.4176 1.91494 43.4176 0.0508551C42.4083 -0.0162253 41.3969 0.146525 40.4596 0.526855Z" fill="#FFCB8B"/>
<path d="M32.1183 1.32493C31.3595 2.03557 30.8425 2.96613 30.64 3.9858L26.8217 18.6206L23.6863 6.64667C23.3814 5.2247 22.7766 3.88413 21.9124 2.7145C20.9429 1.76099 19.6356 1.2296 18.2759 1.23624C16.9209 1.25391 15.6223 1.78176 14.6393 2.7145C13.7735 3.88375 13.1672 5.22434 12.861 6.64667L9.90447 18.6206L6.09203 3.9858C5.86541 2.97514 5.35216 2.05128 4.61377 1.32493C3.96743 0.817569 3.22681 0.443551 2.43484 0.22456C1.64286 0.0055692 0.815302 -0.0540383 0.00012207 0.0491932L7.27464 27.4399C8.4712 27.5577 9.67921 27.4264 10.8225 27.054C12.3909 26.2587 13.1877 25.6896 14.0746 21.9393C14.9616 18.5984 17.3268 8.86849 17.5072 8.19145C17.5988 7.8958 17.8028 7.00884 18.3941 7.00884C18.9854 7.00884 19.1894 7.80415 19.2811 8.19145C19.4851 8.87293 21.8266 18.6028 22.7136 21.9393C23.6907 25.6674 24.3737 26.2587 25.9658 27.054C27.109 27.4264 28.317 27.5577 29.5136 27.4399L36.7334 0.0491932C35.0873 -0.146255 33.4303 0.311799 32.1183 1.32493Z" fill="#191A15"/>
<path d="M43.3924 4.45996C42.9799 4.96937 42.4791 5.40049 41.9141 5.73274C41.2326 6.11857 40.6413 6.32405 39.9598 6.70987C38.7772 7.30118 38.4816 7.89248 38.4816 8.77944V10.5533V27.3493C39.5133 27.4616 40.557 27.3294 41.5283 26.9635C43.0967 26.1682 43.3924 25.3951 43.3924 22.0542V5.55092V4.45996Z" fill="#191A15"/>
<path d="M61.4633 13.8011L70.6921 0.139015C70.6921 0.139015 66.8738 -0.542463 64.8959 1.22997C63.9217 2.1671 63.0668 3.22065 62.3503 4.36684L59.0094 9.27466C58.8054 9.57031 58.6236 9.77431 58.328 9.77431C58.1818 9.75429 58.0429 9.69811 57.9239 9.61086C57.8049 9.52361 57.7095 9.40806 57.6465 9.27466L54.3056 4.36536C53.5313 3.26126 52.6797 2.2135 51.7571 1.22997C49.8028 -0.543941 45.9608 0.139015 45.9608 0.139015L54.894 13.7774L45.7568 27.4159C45.7568 27.4159 49.7806 27.9155 51.7571 26.1431C52.6935 25.2619 53.5182 24.2689 54.2125 23.1866L57.5533 18.2773C57.7573 17.9816 57.9392 17.7776 58.2348 17.7776C58.381 17.7976 58.5199 17.8538 58.6389 17.9411C58.7579 18.0283 58.8532 18.1439 58.9163 18.2773L62.2572 23.1866C62.9836 24.245 63.8055 25.2347 64.7126 26.1431C66.6668 27.917 70.6005 27.4159 70.6005 27.4159L61.4633 13.8011Z" fill="#191A15"/>
</svg>
