<svg width="84" height="50" viewBox="0 0 84 50" fill="none" xmlns="http://www.w3.org/2000/svg">
<path fill-rule="evenodd" clip-rule="evenodd" d="M7.53884 0C30.2864 5.5665e-05 53.0206 5.5665e-05 75.7408 0C79.1837 0.242933 81.5649 1.95065 82.8837 5.12315C83.1171 5.77764 83.2649 6.45084 83.327 7.14286C83.36 16.2069 83.36 25.2709 83.327 34.335C82.9654 37.3182 81.4467 39.4775 78.7704 40.8128C77.9196 41.1878 77.0413 41.3931 76.1349 41.4286C67.8541 41.4696 59.5704 41.4942 51.2827 41.5025C52.3743 44.1535 53.4664 46.8054 54.5585 49.4581C54.5915 49.5236 54.5915 49.5897 54.5585 49.6552C49.7083 46.9221 44.8395 44.2209 39.9526 41.5517C39.612 41.5426 39.2754 41.5179 38.9428 41.4778C28.4933 41.479 17.935 41.479 7.2679 41.4778C4.3535 41.1623 2.20243 39.7173 0.8147 37.1429C0.315498 36.1231 0.0445618 35.0475 0.00189184 33.9163C-0.00378254 25.1922 0.0044278 16.3826 0.0265224 7.48768C0.360999 3.72144 2.33965 1.29944 5.96248 0.221675C6.49066 0.114711 7.01613 0.0408192 7.53884 0Z" fill="#9B5D8F"/>
<path fill-rule="evenodd" clip-rule="evenodd" d="M3.94205 7.48874C4.01133 7.46544 4.04417 7.41617 4.04058 7.34095C4.35832 6.76952 4.83451 6.38366 5.46915 6.18332C6.46836 5.87672 7.42072 5.97524 8.32629 6.47888C8.726 6.79376 8.99693 7.19608 9.1391 7.68578C9.72491 11.1512 10.316 14.616 10.9125 18.0799C11.439 20.8961 12.0548 23.6875 12.7598 26.4543C12.8019 26.3829 12.8511 26.3173 12.9076 26.2572C13.2391 25.615 13.5675 24.9746 13.8928 24.336C13.9621 24.3127 13.9949 24.2635 13.9913 24.1882C14.6624 22.9281 15.3192 21.6637 15.9618 20.3951C16.031 20.3718 16.0639 20.3226 16.0603 20.2474C16.3686 19.6801 16.6641 19.1054 16.947 18.5232C17.0162 18.4999 17.0491 18.4507 17.0455 18.3754C17.1509 18.099 17.2823 17.8362 17.4396 17.5873C17.5089 17.564 17.5417 17.5147 17.5381 17.4395C18.4192 15.7068 19.3142 13.9826 20.2228 12.2671C20.5857 11.6415 21.0536 11.1079 21.6268 10.6661C22.7331 10.0744 23.743 10.1976 24.6563 11.0355C24.7881 11.2165 24.9195 11.3971 25.0504 11.5774C25.1397 11.8293 25.2383 12.0756 25.346 12.3163C25.6565 13.6223 25.9356 14.936 26.1834 16.2572C26.8168 19.1365 27.6707 21.9444 28.745 24.6809C29.0538 22.0433 29.4315 19.416 29.878 16.7991C30.3346 14.2827 30.975 11.8197 31.7992 9.40992C32.2445 8.09307 32.8191 6.84514 33.5233 5.66608C34.3866 4.65491 35.4622 4.35113 36.7499 4.75475C38.5328 5.53869 39.0993 6.86051 38.4494 8.72026C37.8009 10.0011 37.2754 11.3312 36.8731 12.7104C35.9165 16.2348 35.2105 19.8145 34.7549 23.4493C34.2111 27.1008 34.0058 30.7708 34.1391 34.4592C34.178 35.4592 33.866 36.3295 33.2031 37.07C32.7237 37.4652 32.1736 37.654 31.5529 37.6365C31.1679 37.5793 30.7985 37.4725 30.4445 37.3163C30.1171 37.0879 29.7888 36.858 29.4593 36.6267C28.8662 36.0213 28.2997 35.3891 27.7598 34.7301C26.1525 32.5918 24.8225 30.2765 23.7696 27.7843C22.9631 25.8576 22.2735 23.8872 21.7007 21.873C19.9372 25.2849 18.2131 28.7168 16.5283 32.1685C15.9249 33.3268 15.2352 34.4269 14.4593 35.469C13.9571 36.1025 13.3906 36.669 12.7598 37.1685C12.4648 37.3407 12.1528 37.472 11.8238 37.5626C11.4087 37.6435 11.031 37.5614 10.6908 37.3163C10.1068 36.8316 9.67166 36.2323 9.3854 35.5183C8.66905 33.6154 8.06146 31.6779 7.56274 29.7055C6.53146 25.4852 5.64476 21.2324 4.90265 16.9469C4.481 14.4005 4.05406 11.8554 3.62186 9.3114C3.5642 8.67243 3.67093 8.06489 3.94205 7.48874Z" fill="#FEFEFE"/>
<path fill-rule="evenodd" clip-rule="evenodd" d="M4.04052 7.33984C4.04411 7.41507 4.01127 7.46433 3.94199 7.48763C3.9384 7.41241 3.97124 7.36314 4.04052 7.33984Z" fill="#CCACC6"/>
<path fill-rule="evenodd" clip-rule="evenodd" d="M48.1297 8.27647C52.1321 8.17726 54.9646 9.91785 56.6272 13.4981C57.5804 15.8701 57.909 18.3331 57.6124 20.8873C57.2676 24.6461 55.9045 27.9795 53.5237 30.8873C51.0917 33.567 48.1113 34.4619 44.5829 33.572C42.0397 32.7699 40.2416 31.136 39.1888 28.6706C38.5751 27.2061 38.2303 25.679 38.1543 24.0893C37.8854 19.5408 39.1005 15.4685 41.7996 11.8725C42.047 11.6578 42.2604 11.4115 42.44 11.1336C43.964 9.45598 45.8605 8.50362 48.1297 8.27647Z" fill="#FEFEFE"/>
<path fill-rule="evenodd" clip-rule="evenodd" d="M65.3714 9.75324C65.4468 9.75684 65.496 9.72398 65.5192 9.65472C67.1236 8.58846 68.897 8.13694 70.8394 8.30004C73.8813 8.58763 76.131 10.0572 77.5882 12.7089C78.2079 13.8866 78.6266 15.1346 78.8443 16.4527C79.5694 21.764 78.2886 26.526 75.0019 30.7385C72.5226 33.5485 69.4601 34.4762 65.8148 33.5217C63.8182 32.9202 62.2827 31.7297 61.2088 29.9503C60.3591 28.5086 59.834 26.9486 59.6325 25.2705C58.999 20.2333 60.2143 15.7177 63.2778 11.7237C63.7813 11.1711 64.2985 10.6374 64.8295 10.1227C65.0177 10.0079 65.1985 9.88477 65.3714 9.75324Z" fill="#FEFEFE"/>
<path fill-rule="evenodd" clip-rule="evenodd" d="M65.5184 9.65456C65.4952 9.72382 65.4459 9.75668 65.3706 9.75309C65.3937 9.68382 65.443 9.65097 65.5184 9.65456Z" fill="#CCACC6"/>
<path fill-rule="evenodd" clip-rule="evenodd" d="M48.5728 13.99C49.5546 13.9185 50.3019 14.2961 50.8142 15.123C51.8925 17.0292 52.2373 19.0654 51.8487 21.2314C51.6127 22.9087 51.0378 24.4522 50.1245 25.8619C49.5836 26.5507 48.9516 27.1336 48.228 27.6107C47.9544 27.7393 47.6753 27.8542 47.3905 27.9555C46.5753 28.1623 45.8856 27.957 45.3216 27.3397C45.1042 27.0977 44.9154 26.835 44.7551 26.5516C43.5396 23.8504 43.4904 21.1247 44.6073 18.3742C45.0738 17.309 45.665 16.3237 46.3807 15.4186C46.9625 14.6977 47.6932 14.2215 48.5728 13.99Z" fill="#9C5D90"/>
<path fill-rule="evenodd" clip-rule="evenodd" d="M69.9035 13.9907C71.069 13.958 71.8985 14.467 72.3911 15.5178C73.1966 17.1331 73.4921 18.8408 73.2778 20.641C73.0907 22.5136 72.4995 24.2377 71.5044 25.8134C70.9818 26.5003 70.366 27.0832 69.6572 27.5622C68.204 28.405 67.0463 28.1177 66.1843 26.7001C65.036 24.2979 64.8557 21.8184 65.6424 19.2617C66.1104 17.7992 66.833 16.4856 67.8099 15.3208C68.3916 14.6789 69.0897 14.2355 69.9035 13.9907Z" fill="#9C5D90"/>
<path fill-rule="evenodd" clip-rule="evenodd" d="M17.5391 17.4385C17.5426 17.5137 17.5098 17.563 17.4405 17.5863C17.4369 17.511 17.4698 17.4618 17.5391 17.4385Z" fill="#CCACC6"/>
<path fill-rule="evenodd" clip-rule="evenodd" d="M17.0454 18.375C17.0489 18.4502 17.0161 18.4995 16.9468 18.5228C16.9432 18.4476 16.9761 18.3983 17.0454 18.375Z" fill="#CCACC6"/>
<path fill-rule="evenodd" clip-rule="evenodd" d="M16.0609 20.2471C16.0645 20.3223 16.0316 20.3716 15.9623 20.3949C15.9587 20.3196 15.9916 20.2704 16.0609 20.2471Z" fill="#CCACC6"/>
<path fill-rule="evenodd" clip-rule="evenodd" d="M13.9915 24.1875C13.9951 24.2627 13.9623 24.312 13.893 24.3353C13.8894 24.2601 13.9223 24.2108 13.9915 24.1875Z" fill="#CCACC6"/>
</svg>
