<svg width="52" height="48" viewBox="0 0 52 48" fill="none" xmlns="http://www.w3.org/2000/svg">
<path d="M15.1814 0.127724C9.73327 1.00991 5.04813 4.20487 2.37772 8.87809C1.3644 10.6544 0.613344 12.8241 0.267621 14.9819C0.0172697 16.5198 -0.0900236 21.4076 0.0887985 23.4223C0.33915 26.4027 0.851773 28.2982 2.06776 30.7778C4.65472 36.0114 9.49484 39.5759 15.1814 40.4342C16.147 40.5773 17.8637 40.6131 24.2656 40.6131H32.1457L32.551 40.9349C32.7656 41.1257 34.363 42.5801 36.0917 44.1657C37.8322 45.7631 39.3581 47.1222 39.5012 47.1699C39.9542 47.3368 40.741 47.1699 40.9914 46.8361C41.2179 46.5619 41.2298 46.3354 41.2298 42.8662V39.1944L42.1597 38.7056C44.3652 37.5492 46.976 35.2722 48.4185 33.2575C49.9802 31.052 51.1246 28.2624 51.6015 25.4728C52.1022 22.4924 52.0426 17.0324 51.4823 14.2547C51.0054 11.9061 49.9563 9.4384 48.5734 7.41175C47.6913 6.1123 45.5692 3.96644 44.246 3.02464C42.4816 1.77289 40.2999 0.807247 37.9514 0.235016C37.2004 0.0561943 36.0082 0.0323524 26.626 0.00850677C18.5075 -0.0153351 15.9205 0.00850677 15.1814 0.127724ZM30.1905 5.07514C30.3932 5.30164 30.3574 5.52815 29.0818 10.8571C28.3546 13.909 27.7585 16.484 27.7585 16.5913C27.7585 16.7463 28.295 16.7701 32.1457 16.7701C36.4612 16.7701 36.5447 16.7701 36.8069 17.0205C36.9977 17.1993 37.0692 17.3781 37.0335 17.5927C36.9858 17.8788 24.5636 35.4272 24.2536 35.6418C24.1821 35.6895 23.5622 35.7133 22.8707 35.7014C21.6667 35.6656 21.619 35.6537 21.4759 35.3676C21.3567 35.1173 21.3806 34.8669 21.6309 33.8774C22.6919 29.5142 23.9437 24.2806 23.9437 24.1733C23.9437 24.078 22.6562 24.0422 19.8427 24.0422H15.7417L15.3602 23.7203C15.0503 23.47 14.9906 23.3388 15.0264 23.0408C15.0503 22.8024 17.0769 19.667 20.8322 14.0282C24.0033 9.2715 26.7095 5.26588 26.8406 5.1109C27.0671 4.87247 27.1863 4.84863 28.5334 4.84863C29.821 4.84863 30.0117 4.87247 30.1905 5.07514Z" fill="#2565FF"/>
</svg>
