<svg width="201" height="48" viewBox="0 0 201 48" fill="none" xmlns="http://www.w3.org/2000/svg">
<path d="M15.1814 0.127678C9.73327 1.00986 5.04813 4.20482 2.37772 8.87804C1.3644 10.6543 0.613344 12.8241 0.267621 14.9818C0.0172697 16.5197 -0.0900236 21.4075 0.0887985 23.4222C0.33915 26.4026 0.851773 28.2981 2.06776 30.7778C4.65472 36.0113 9.49484 39.5758 15.1814 40.4342C16.147 40.5773 17.8637 40.613 24.2656 40.613H32.1457L32.551 40.9349C32.7656 41.1256 34.363 42.5801 36.0917 44.1656C37.8322 45.7631 39.3581 47.1221 39.5012 47.1698C39.9542 47.3367 40.741 47.1698 40.9914 46.836C41.2179 46.5618 41.2298 46.3353 41.2298 42.8662V39.1944L42.1597 38.7056C44.3652 37.5492 46.976 35.2722 48.4185 33.2575C49.9802 31.052 51.1246 28.2624 51.6015 25.4727C52.1022 22.4924 52.0426 17.0323 51.4823 14.2546C51.0054 11.9061 49.9563 9.43835 48.5734 7.4117C47.6913 6.11226 45.5692 3.96639 44.246 3.0246C42.4816 1.77284 40.2999 0.807201 37.9514 0.23497C37.2004 0.0561485 36.0082 0.0323067 26.626 0.008461C18.5075 -0.0153809 15.9205 0.008461 15.1814 0.127678ZM30.1905 5.07509C30.3932 5.3016 30.3574 5.52811 29.0818 10.857C28.3546 13.9089 27.7585 16.4839 27.7585 16.5912C27.7585 16.7462 28.295 16.7701 32.1457 16.7701C36.4612 16.7701 36.5447 16.7701 36.8069 17.0204C36.9977 17.1992 37.0692 17.3781 37.0335 17.5926C36.9858 17.8788 24.5636 35.4272 24.2536 35.6418C24.1821 35.6894 23.5622 35.7133 22.8707 35.7014C21.6667 35.6656 21.619 35.6537 21.4759 35.3676C21.3567 35.1172 21.3806 34.8669 21.6309 33.8774C22.6919 29.5141 23.9437 24.2806 23.9437 24.1733C23.9437 24.0779 22.6562 24.0422 19.8427 24.0422H15.7417L15.3602 23.7203C15.0503 23.4699 14.9906 23.3388 15.0264 23.0408C15.0503 22.8023 17.0769 19.667 20.8322 14.0281C24.0033 9.27145 26.7095 5.26583 26.8406 5.11086C27.0671 4.87243 27.1863 4.84858 28.5334 4.84858C29.821 4.84858 30.0117 4.87243 30.1905 5.07509Z" fill="#2565FF"/>
<path d="M68.3981 24.5257C67.266 24.5257 66.3256 24.4232 65.5768 24.2181C64.8369 24.0131 64.2397 23.7591 63.785 23.456C63.3393 23.144 62.9961 22.8364 62.7555 22.5334C62.6752 22.4175 62.6039 22.3061 62.5415 22.1991C62.4791 22.0921 62.4345 21.9718 62.4078 21.8381C62.3721 21.6598 62.3365 21.428 62.3008 21.1428C62.2652 20.8486 62.2607 20.5099 62.2875 20.1266C62.2964 19.9661 62.3276 19.8547 62.3811 19.7923C62.4435 19.721 62.546 19.6675 62.6886 19.6318C62.9471 19.5694 63.2814 19.5159 63.6914 19.4714C64.1104 19.4179 64.409 19.3911 64.5873 19.3911C64.7745 19.3911 64.926 19.4268 65.0419 19.4981C65.1578 19.5694 65.296 19.6898 65.4564 19.8591C65.6347 20.0463 65.9423 20.287 66.379 20.5812C66.8158 20.8664 67.4889 21.0091 68.3981 21.0091C69.2717 21.0091 69.9313 20.8263 70.377 20.4608C70.8227 20.0954 71.0456 19.5872 71.0456 18.9365C71.0456 18.5889 70.9386 18.2635 70.7247 17.9604C70.5197 17.6484 70.1408 17.3409 69.5881 17.0378C69.0355 16.7258 68.2466 16.4004 67.2214 16.0617C65.5277 15.4912 64.3065 14.7825 63.5577 13.9357C62.8089 13.0888 62.4345 11.9122 62.4345 10.4057C62.4345 9.1577 62.7376 8.11475 63.3438 7.27682C63.9499 6.43889 64.7879 5.80599 65.8576 5.37811C66.9273 4.95023 68.1619 4.73629 69.5614 4.73629C70.64 4.73629 71.5314 4.86555 72.2356 5.12406C72.9488 5.37365 73.5014 5.65891 73.8937 5.97981C74.2859 6.29181 74.5399 6.54586 74.6558 6.74197C74.7271 6.85786 74.7717 6.947 74.7895 7.0094C74.8163 7.06288 74.8341 7.13865 74.843 7.23671C74.8698 7.51305 74.8787 7.82058 74.8698 8.15932C74.8609 8.49806 74.8297 8.88137 74.7762 9.30924C74.7494 9.45187 74.7004 9.54993 74.6291 9.60341C74.5667 9.64798 74.4686 9.67027 74.3349 9.67027C73.4702 9.6881 72.8017 9.64352 72.3292 9.53656C72.142 9.49198 72.0172 9.44741 71.9548 9.40284C71.8924 9.35827 71.8122 9.28696 71.7142 9.1889C71.5715 9.01954 71.3442 8.82342 71.0322 8.60057C70.7291 8.3688 70.2389 8.25292 69.5614 8.25292C68.6254 8.25292 67.9613 8.46686 67.5691 8.89474C67.1769 9.3137 66.9808 9.78615 66.9808 10.3121C66.9808 10.9361 67.2705 11.4264 67.8499 11.7829C68.4293 12.1306 69.343 12.5272 70.591 12.973C71.6339 13.3384 72.5298 13.7351 73.2786 14.163C74.0274 14.5909 74.5979 15.1391 74.9901 15.8077C75.3912 16.4762 75.5918 17.3587 75.5918 18.4552C75.5918 19.819 75.2754 20.9511 74.6425 21.8514C74.0185 22.7518 73.1627 23.4248 72.0752 23.8705C70.9966 24.3073 69.7709 24.5257 68.3981 24.5257ZM84.0157 24.539C81.0383 24.539 79.5497 22.9924 79.5497 19.8992V13.6281H78.0387C77.7713 13.6281 77.5841 13.5747 77.4771 13.4677C77.3791 13.3518 77.3301 13.1602 77.3301 12.8927V11.2481C77.3301 10.9806 77.3791 10.7934 77.4771 10.6865C77.5841 10.5706 77.7713 10.5127 78.0387 10.5127H79.5497V8.35989C79.5497 8.14595 79.5943 7.98104 79.6834 7.86515C80.0578 7.37488 80.606 6.84449 81.3281 6.27398C81.4529 6.18484 81.5643 6.14027 81.6623 6.14027C81.7693 6.14027 81.8763 6.18484 81.9832 6.27398C82.3666 6.56815 82.6875 6.84449 82.946 7.103C83.2134 7.36151 83.4407 7.61556 83.6279 7.86515C83.717 7.98104 83.7616 8.14595 83.7616 8.35989V10.5127H86.1283C86.3957 10.5127 86.5785 10.5706 86.6765 10.6865C86.7835 10.7934 86.837 10.9806 86.837 11.2481V12.8927C86.837 13.1602 86.7835 13.3518 86.6765 13.4677C86.5785 13.5747 86.3957 13.6281 86.1283 13.6281H83.7616V19.1638C83.7616 20.5901 84.2786 21.3032 85.3127 21.3032C85.4731 21.3032 85.6202 21.2898 85.7539 21.2631C85.8876 21.2274 86.0035 21.1918 86.1016 21.1561C86.2888 21.0848 86.418 21.0581 86.4893 21.0759C86.5696 21.0937 86.6409 21.1918 86.7033 21.3701L87.4788 23.4426C87.559 23.6655 87.5056 23.8259 87.3184 23.924C87.1846 23.9864 86.8593 24.1023 86.3423 24.2716C85.8342 24.4499 85.0586 24.539 84.0157 24.539ZM96.023 24.539C93.7767 24.539 91.9983 23.9418 90.6879 22.7473C89.3775 21.5528 88.7223 19.7744 88.7223 17.4122C88.7223 14.9876 89.3998 13.178 90.7548 11.9835C92.1186 10.7801 93.9371 10.1784 96.2102 10.1784C98.4031 10.1784 100.159 10.7712 101.478 11.9567C102.798 13.1334 103.457 14.8717 103.457 17.1715C103.457 19.5694 102.798 21.3968 101.478 22.6537C100.159 23.9106 98.3407 24.539 96.023 24.539ZM96.1567 21.3032C97.1373 21.3032 97.8772 21.0001 98.3763 20.394C98.8755 19.7789 99.1251 18.7315 99.1251 17.2517C99.1251 15.8433 98.8711 14.8538 98.363 14.2833C97.8638 13.7039 97.1195 13.4142 96.13 13.4142C95.1762 13.4142 94.4229 13.7262 93.8702 14.3502C93.3265 14.9653 93.0546 15.9681 93.0546 17.3587C93.0546 18.8117 93.3131 19.8324 93.8301 20.4207C94.3561 21.0091 95.1316 21.3032 96.1567 21.3032ZM110.558 13.0532H110.611C111.28 11.199 112.483 10.272 114.221 10.272C114.444 10.272 114.627 10.2853 114.769 10.3121C114.912 10.3299 115.01 10.3477 115.064 10.3656C115.197 10.4101 115.264 10.5127 115.264 10.6731V13.8956C115.264 14.1719 115.104 14.2477 114.783 14.1229C114.676 14.0783 114.52 14.0337 114.315 13.9892C114.119 13.9357 113.842 13.9089 113.486 13.9089C112.568 13.9089 111.85 14.2477 111.333 14.9252C110.816 15.5937 110.558 16.5074 110.558 17.6662V23.4961C110.558 23.7635 110.5 23.9507 110.384 24.0577C110.277 24.1557 110.09 24.2048 109.822 24.2048H107.068C106.8 24.2048 106.609 24.1557 106.493 24.0577C106.386 23.9507 106.332 23.7635 106.332 23.4961V12.291C106.332 12.0771 106.377 11.9122 106.466 11.7963C106.653 11.5467 106.876 11.2926 107.134 11.0341C107.402 10.7756 107.727 10.4993 108.111 10.2051C108.182 10.1516 108.253 10.116 108.325 10.0981C108.396 10.0803 108.458 10.0714 108.512 10.0714C108.637 10.0714 108.761 10.116 108.886 10.2051C109.626 10.7845 110.143 11.2793 110.437 11.6893C110.517 11.7963 110.558 11.9211 110.558 12.0637V13.0532ZM123.982 24.539C122.476 24.539 121.165 24.2984 120.051 23.817C118.937 23.3267 118.072 22.569 117.457 21.5439C116.842 20.5188 116.534 19.195 116.534 17.5727C116.534 15.1391 117.158 13.2983 118.406 12.0503C119.654 10.8024 121.312 10.1784 123.38 10.1784C124.727 10.1784 125.863 10.4191 126.79 10.9004C127.726 11.3818 128.435 12.0459 128.916 12.8927C129.406 13.7396 129.652 14.7068 129.652 15.7943C129.652 16.8551 129.38 17.5949 128.836 18.0139C128.292 18.4329 127.499 18.6423 126.456 18.6423H120.72C120.791 19.5605 121.125 20.2603 121.722 20.7416C122.329 21.223 123.149 21.4637 124.183 21.4637C125.003 21.4637 125.658 21.3433 126.148 21.1026C126.648 20.8531 126.995 20.6569 127.191 20.5143C127.361 20.3895 127.552 20.3316 127.766 20.3405C127.936 20.3405 128.176 20.3761 128.488 20.4475C128.809 20.5099 129.126 20.6302 129.438 20.8085C129.661 20.9244 129.772 21.0848 129.772 21.2898C129.772 21.4057 129.75 21.5706 129.705 21.7846C129.678 21.9094 129.634 22.0921 129.571 22.3328C129.509 22.5646 129.429 22.783 129.331 22.988C129.277 23.086 129.193 23.1796 129.077 23.2688C128.898 23.3936 128.609 23.5585 128.208 23.7635C127.815 23.9685 127.276 24.1468 126.59 24.2984C125.903 24.4588 125.034 24.539 123.982 24.539ZM120.693 15.9012H125.052C125.507 15.9012 125.734 15.6918 125.734 15.2728C125.734 14.6399 125.533 14.1095 125.132 13.6816C124.74 13.2448 124.147 13.0264 123.354 13.0264C122.489 13.0264 121.852 13.3028 121.442 13.8555C121.041 14.4081 120.791 15.0901 120.693 15.9012ZM138.182 18.6156C138.182 20.0775 138.031 21.33 137.728 22.3729C137.434 23.4159 137.024 24.3028 136.498 25.0338C135.981 25.7647 135.388 26.3887 134.719 26.9058C134.06 27.4317 133.364 27.9086 132.633 28.3365C132.33 28.5058 132.09 28.4479 131.911 28.1626L130.414 25.7692C130.218 25.4483 130.284 25.1898 130.614 24.9937C131.194 24.6549 131.729 24.236 132.219 23.7368C132.709 23.2287 133.106 22.569 133.409 21.7578C133.712 20.9377 133.864 19.8903 133.864 18.6156V7.16985C133.864 6.91134 133.908 6.71523 133.997 6.58152C134.398 5.99319 134.96 5.37365 135.682 4.72292C135.816 4.61595 135.932 4.56247 136.03 4.56247C136.137 4.56247 136.248 4.61595 136.364 4.72292C136.756 5.06166 137.086 5.38702 137.353 5.69902C137.621 6.0021 137.853 6.29627 138.049 6.58152C138.138 6.72414 138.182 6.92026 138.182 7.16985V18.6156ZM146.646 24.539C143.473 24.539 141.886 22.6181 141.886 18.7761L141.873 11.9835C141.873 11.7695 141.917 11.6046 142.007 11.4888C142.381 10.9985 142.929 10.4681 143.651 9.89758C143.776 9.80844 143.887 9.76387 143.986 9.76387C144.101 9.76387 144.213 9.80844 144.32 9.89758C144.703 10.1917 145.024 10.4681 145.283 10.7266C145.55 10.9851 145.777 11.2392 145.964 11.4888C146.054 11.6046 146.098 11.7695 146.098 11.9835V18.4017C146.098 20.336 146.865 21.3032 148.398 21.3032C149.156 21.3032 149.762 21.0403 150.217 20.5143C150.671 19.9795 150.898 19.2574 150.898 18.3482V11.9835C150.898 11.7695 150.943 11.6046 151.032 11.4888C151.407 10.9985 151.955 10.4681 152.677 9.89758C152.802 9.80844 152.913 9.76387 153.011 9.76387C153.127 9.76387 153.238 9.80844 153.345 9.89758C153.729 10.1917 154.05 10.4681 154.308 10.7266C154.576 10.9851 154.803 11.2392 154.99 11.4888C155.079 11.6046 155.124 11.7695 155.124 11.9835V23.5897C155.124 23.7591 155.066 23.9061 154.95 24.0309C154.834 24.1468 154.687 24.2048 154.509 24.2048H152.503C152.36 24.2048 152.231 24.1869 152.115 24.1513C152.008 24.1067 151.906 24.0265 151.808 23.9106L150.979 22.8409H150.885C150.742 23.0459 150.52 23.2822 150.217 23.5496C149.922 23.817 149.49 24.0488 148.92 24.2449C148.358 24.441 147.6 24.539 146.646 24.539ZM170.995 11.9166C171.325 11.5155 171.833 11.1277 172.52 10.7533C173.215 10.37 174.191 10.1784 175.448 10.1784C177.231 10.1784 178.519 10.6375 179.312 11.5556C180.106 12.4738 180.502 13.851 180.502 15.6873V23.4961C180.502 23.7635 180.444 23.9507 180.328 24.0577C180.222 24.1557 180.034 24.2048 179.767 24.2048H177.012C176.745 24.2048 176.553 24.1557 176.437 24.0577C176.33 23.9507 176.277 23.7635 176.277 23.4961V16.3826C176.277 15.3842 176.094 14.6711 175.729 14.2432C175.363 13.8064 174.815 13.588 174.084 13.588C173.433 13.588 172.916 13.7351 172.533 14.0293C172.159 14.3145 171.891 14.7023 171.731 15.1926V23.4961C171.731 23.7635 171.673 23.9507 171.557 24.0577C171.45 24.1557 171.263 24.2048 170.995 24.2048H168.241C167.973 24.2048 167.782 24.1557 167.666 24.0577C167.559 23.9507 167.505 23.7635 167.505 23.4961V16.3826C167.505 15.411 167.305 14.7023 166.904 14.2566C166.503 13.8109 165.977 13.588 165.326 13.588C164.711 13.588 164.216 13.7396 163.842 14.0427C163.467 14.3457 163.178 14.729 162.973 15.1926V23.4961C162.973 23.7635 162.915 23.9507 162.799 24.0577C162.692 24.1557 162.505 24.2048 162.237 24.2048H159.483C159.215 24.2048 159.024 24.1557 158.908 24.0577C158.801 23.9507 158.747 23.7635 158.747 23.4961V12.291C158.747 12.0771 158.792 11.9122 158.881 11.7963C159.068 11.5467 159.291 11.2926 159.55 11.0341C159.817 10.7756 160.142 10.4993 160.526 10.2051C160.642 10.116 160.753 10.0714 160.86 10.0714C160.958 10.0714 161.069 10.116 161.194 10.2051C161.569 10.4993 161.89 10.7801 162.157 11.0475C162.424 11.3149 162.661 11.5913 162.866 11.8765H162.933C163.236 11.4932 163.708 11.1144 164.35 10.74C164.992 10.3656 165.91 10.1784 167.104 10.1784C168.245 10.1784 169.092 10.3522 169.645 10.6999C170.198 11.0386 170.648 11.4442 170.995 11.9166ZM192.643 10.1784C193.945 10.1784 195.015 10.4725 195.852 11.0609C196.699 11.6403 197.328 12.4426 197.738 13.4677C198.157 14.4839 198.366 15.6517 198.366 16.9709C198.366 18.3972 198.121 19.6808 197.631 20.8219C197.149 21.9629 196.436 22.8676 195.491 23.5362C194.547 24.2048 193.374 24.539 191.975 24.539C191.253 24.539 190.655 24.4544 190.183 24.285C189.72 24.1245 189.345 23.9329 189.06 23.71C188.784 23.4783 188.565 23.2688 188.405 23.0816H188.351V28.7777C188.351 28.9917 188.307 29.1566 188.217 29.2725C187.843 29.7627 187.295 30.2931 186.573 30.8636C186.448 30.9528 186.337 30.9973 186.239 30.9973C186.132 30.9973 186.02 30.9528 185.904 30.8636C185.521 30.5695 185.196 30.2931 184.928 30.0346C184.67 29.7761 184.447 29.5221 184.26 29.2725C184.17 29.1566 184.126 28.9917 184.126 28.7777V12.291C184.126 12.0771 184.17 11.9122 184.26 11.7963C184.447 11.5467 184.67 11.2926 184.928 11.0341C185.196 10.7756 185.521 10.4993 185.904 10.2051C186.02 10.116 186.14 10.0714 186.265 10.0714C186.381 10.0714 186.502 10.116 186.626 10.2051C187.001 10.4993 187.322 10.7801 187.589 11.0475C187.856 11.3149 188.093 11.5913 188.298 11.8765H188.365C188.516 11.6893 188.748 11.462 189.06 11.1946C189.372 10.9272 189.813 10.6909 190.384 10.4859C190.963 10.2809 191.716 10.1784 192.643 10.1784ZM190.999 21.1294C191.961 21.1294 192.706 20.7951 193.232 20.1266C193.767 19.4491 194.034 18.473 194.034 17.1983C194.034 14.7914 193.044 13.588 191.066 13.588C190.228 13.588 189.608 13.7619 189.207 14.1095C188.806 14.4482 188.521 14.8093 188.351 15.1926V18.0941C188.351 18.9588 188.574 19.6808 189.02 20.2603C189.465 20.8397 190.125 21.1294 190.999 21.1294Z" fill="#2A2F45"/>
<path d="M66.0546 33.689L62.6616 43.0304H61.2748L65.1817 32.7809H66.0758L66.0546 33.689ZM68.8986 43.0304L65.4985 33.689L65.4774 32.7809H66.3714L70.2924 43.0304H68.8986ZM68.7226 39.2361V40.3483H62.9643V39.2361H68.7226ZM73.1223 32.7809V43.0304H71.7637V32.7809H73.1223ZM78.1063 38.1379V39.2079H74.671V38.1379H78.1063ZM80.6827 36.8779V45.9588H79.3734V35.4137H80.5701L80.6827 36.8779ZM85.8145 39.1587V39.3065C85.8145 39.8603 85.7488 40.3741 85.6174 40.8481C85.486 41.3174 85.2936 41.7257 85.0402 42.073C84.7914 42.4203 84.484 42.6901 84.118 42.8826C83.7519 43.075 83.3319 43.1712 82.8579 43.1712C82.3745 43.1712 81.9475 43.0914 81.5767 42.9318C81.206 42.7723 80.8916 42.54 80.6334 42.2349C80.3753 41.9299 80.1688 41.5638 80.014 41.1368C79.8638 40.7097 79.7605 40.2287 79.7042 39.6937V38.9052C79.7605 38.3421 79.8661 37.8376 80.021 37.3917C80.1759 36.9459 80.38 36.5658 80.6334 36.2514C80.8916 35.9322 81.2036 35.6905 81.5697 35.5263C81.9357 35.3573 82.3581 35.2729 82.8368 35.2729C83.3155 35.2729 83.7402 35.3667 84.1109 35.5544C84.4817 35.7375 84.7938 36.0003 85.0472 36.3429C85.3006 36.6855 85.4907 37.0961 85.6174 37.5748C85.7488 38.0488 85.8145 38.5767 85.8145 39.1587ZM84.5052 39.3065V39.1587C84.5052 38.7785 84.4653 38.4219 84.3855 38.0887C84.3057 37.7508 84.1813 37.4551 84.0124 37.2017C83.8481 36.9436 83.637 36.7418 83.3788 36.5963C83.1207 36.4461 82.8133 36.371 82.4567 36.371C82.1282 36.371 81.8419 36.4273 81.5978 36.54C81.3585 36.6526 81.1544 36.8051 80.9854 36.9975C80.8165 37.1853 80.678 37.4011 80.5701 37.6452C80.4668 37.8845 80.3894 38.1332 80.3378 38.3914V40.2146C80.4316 40.5431 80.563 40.8528 80.732 41.1438C80.9009 41.4301 81.1262 41.6624 81.4078 41.8407C81.6894 42.0144 82.0437 42.1012 82.4707 42.1012C82.8227 42.1012 83.1254 42.0284 83.3788 41.8829C83.637 41.7328 83.8481 41.5286 84.0124 41.2705C84.1813 41.0124 84.3057 40.7167 84.3855 40.3835C84.4653 40.0456 84.5052 39.6866 84.5052 39.3065ZM87.1309 39.3065V39.1446C87.1309 38.5955 87.2107 38.0863 87.3702 37.617C87.5298 37.143 87.7598 36.7324 88.0601 36.3851C88.3605 36.0331 88.7242 35.7609 89.1512 35.5685C89.5783 35.3714 90.057 35.2729 90.5873 35.2729C91.1223 35.2729 91.6033 35.3714 92.0304 35.5685C92.4621 35.7609 92.8282 36.0331 93.1285 36.3851C93.4336 36.7324 93.6659 37.143 93.8254 37.617C93.985 38.0863 94.0648 38.5955 94.0648 39.1446V39.3065C94.0648 39.8556 93.985 40.3648 93.8254 40.8341C93.6659 41.3034 93.4336 41.714 93.1285 42.066C92.8282 42.4133 92.4645 42.6854 92.0374 42.8826C91.615 43.075 91.1364 43.1712 90.6014 43.1712C90.0664 43.1712 89.5853 43.075 89.1583 42.8826C88.7312 42.6854 88.3651 42.4133 88.0601 42.066C87.7598 41.714 87.5298 41.3034 87.3702 40.8341C87.2107 40.3648 87.1309 39.8556 87.1309 39.3065ZM88.4332 39.1446V39.3065C88.4332 39.6866 88.4778 40.0456 88.5669 40.3835C88.6561 40.7167 88.7899 41.0124 88.9682 41.2705C89.1512 41.5286 89.3788 41.7328 89.651 41.8829C89.9232 42.0284 90.24 42.1012 90.6014 42.1012C90.958 42.1012 91.2701 42.0284 91.5376 41.8829C91.8098 41.7328 92.0351 41.5286 92.2134 41.2705C92.3917 41.0124 92.5255 40.7167 92.6147 40.3835C92.7085 40.0456 92.7554 39.6866 92.7554 39.3065V39.1446C92.7554 38.7691 92.7085 38.4148 92.6147 38.0816C92.5255 37.7437 92.3894 37.4457 92.2064 37.1876C92.028 36.9248 91.8028 36.7183 91.5306 36.5681C91.2631 36.418 90.9486 36.3429 90.5873 36.3429C90.2306 36.3429 89.9162 36.418 89.644 36.5681C89.3765 36.7183 89.1512 36.9248 88.9682 37.1876C88.7899 37.4457 88.6561 37.7437 88.5669 38.0816C88.4778 38.4148 88.4332 38.7691 88.4332 39.1446ZM97.6268 41.6788L99.5838 35.4137H100.443L100.274 36.6596L98.2814 43.0304H97.4437L97.6268 41.6788ZM96.3104 35.4137L97.9787 41.7492L98.0984 43.0304H97.2185L95.0081 35.4137H96.3104ZM102.315 41.6999L103.906 35.4137H105.201L102.991 43.0304H102.118L102.315 41.6999ZM100.633 35.4137L102.547 41.5732L102.766 43.0304H101.935L99.8865 36.6456L99.7175 35.4137H100.633ZM109.7 43.1712C109.169 43.1712 108.688 43.082 108.256 42.9037C107.829 42.7206 107.461 42.4649 107.151 42.1364C106.846 41.8079 106.612 41.4183 106.447 40.9678C106.283 40.5173 106.201 40.0245 106.201 39.4895V39.1939C106.201 38.5744 106.292 38.023 106.475 37.5396C106.658 37.0515 106.907 36.6385 107.222 36.3006C107.536 35.9627 107.893 35.707 108.292 35.5333C108.691 35.3597 109.103 35.2729 109.531 35.2729C110.075 35.2729 110.544 35.3667 110.938 35.5544C111.337 35.7422 111.664 36.005 111.917 36.3429C112.17 36.6761 112.358 37.0703 112.48 37.5255C112.602 37.976 112.663 38.4688 112.663 39.0038V39.5881H106.975V38.5251H111.361V38.4266C111.342 38.0887 111.272 37.7601 111.15 37.441C111.032 37.1219 110.845 36.8591 110.586 36.6526C110.328 36.4461 109.976 36.3429 109.531 36.3429C109.235 36.3429 108.963 36.4062 108.714 36.5329C108.465 36.6549 108.252 36.838 108.073 37.082C107.895 37.326 107.757 37.6241 107.658 37.976C107.56 38.328 107.51 38.7339 107.51 39.1939V39.4895C107.51 39.8509 107.56 40.1911 107.658 40.5102C107.761 40.8247 107.909 41.1016 108.102 41.3409C108.299 41.5802 108.536 41.768 108.813 41.9041C109.094 42.0402 109.413 42.1082 109.77 42.1082C110.23 42.1082 110.619 42.0144 110.938 41.8266C111.258 41.6389 111.537 41.3878 111.776 41.0734L112.565 41.6999C112.4 41.9486 112.191 42.1856 111.938 42.4109C111.685 42.6362 111.373 42.8192 111.002 42.96C110.636 43.1008 110.202 43.1712 109.7 43.1712ZM115.486 36.6104V43.0304H114.184V35.4137H115.451L115.486 36.6104ZM117.865 35.3714L117.858 36.5822C117.75 36.5587 117.647 36.5447 117.549 36.54C117.455 36.5306 117.347 36.5259 117.225 36.5259C116.924 36.5259 116.659 36.5728 116.429 36.6667C116.199 36.7605 116.005 36.8919 115.845 37.0609C115.685 37.2298 115.559 37.4316 115.465 37.6663C115.376 37.8962 115.317 38.1497 115.289 38.4266L114.923 38.6377C114.923 38.1778 114.967 37.7461 115.057 37.3425C115.15 36.9389 115.294 36.5822 115.486 36.2725C115.678 35.958 115.922 35.714 116.218 35.5404C116.518 35.362 116.875 35.2729 117.288 35.2729C117.382 35.2729 117.49 35.2846 117.612 35.3081C117.734 35.3268 117.818 35.3479 117.865 35.3714ZM122.089 43.1712C121.559 43.1712 121.078 43.082 120.646 42.9037C120.219 42.7206 119.85 42.4649 119.541 42.1364C119.236 41.8079 119.001 41.4183 118.837 40.9678C118.673 40.5173 118.59 40.0245 118.59 39.4895V39.1939C118.59 38.5744 118.682 38.023 118.865 37.5396C119.048 37.0515 119.297 36.6385 119.611 36.3006C119.926 35.9627 120.282 35.707 120.681 35.5333C121.08 35.3597 121.493 35.2729 121.92 35.2729C122.464 35.2729 122.934 35.3667 123.328 35.5544C123.727 35.7422 124.053 36.005 124.306 36.3429C124.56 36.6761 124.748 37.0703 124.87 37.5255C124.992 37.976 125.053 38.4688 125.053 39.0038V39.5881H119.365V38.5251H123.75V38.4266C123.732 38.0887 123.661 37.7601 123.539 37.441C123.422 37.1219 123.234 36.8591 122.976 36.6526C122.718 36.4461 122.366 36.3429 121.92 36.3429C121.624 36.3429 121.352 36.4062 121.103 36.5329C120.855 36.6549 120.641 36.838 120.463 37.082C120.285 37.326 120.146 37.6241 120.048 37.976C119.949 38.328 119.9 38.7339 119.9 39.1939V39.4895C119.9 39.8509 119.949 40.1911 120.048 40.5102C120.151 40.8247 120.299 41.1016 120.491 41.3409C120.688 41.5802 120.925 41.768 121.202 41.9041C121.484 42.0402 121.803 42.1082 122.159 42.1082C122.619 42.1082 123.009 42.0144 123.328 41.8266C123.647 41.6389 123.926 41.3878 124.166 41.0734L124.954 41.6999C124.79 41.9486 124.581 42.1856 124.328 42.4109C124.074 42.6362 123.762 42.8192 123.391 42.96C123.025 43.1008 122.591 43.1712 122.089 43.1712ZM131.374 41.5521V32.2177H132.683V43.0304H131.487L131.374 41.5521ZM126.249 39.3065V39.1587C126.249 38.5767 126.32 38.0488 126.461 37.5748C126.606 37.0961 126.81 36.6855 127.073 36.3429C127.34 36.0003 127.657 35.7375 128.023 35.5544C128.394 35.3667 128.807 35.2729 129.262 35.2729C129.741 35.2729 130.159 35.3573 130.515 35.5263C130.877 35.6905 131.182 35.9322 131.43 36.2514C131.684 36.5658 131.883 36.9459 132.029 37.3917C132.174 37.8376 132.275 38.3421 132.331 38.9052V39.5529C132.28 40.1113 132.179 40.6135 132.029 41.0593C131.883 41.5052 131.684 41.8853 131.43 42.1997C131.182 42.5142 130.877 42.7558 130.515 42.9248C130.154 43.089 129.732 43.1712 129.248 43.1712C128.802 43.1712 128.394 43.075 128.023 42.8826C127.657 42.6901 127.34 42.4203 127.073 42.073C126.81 41.7257 126.606 41.3174 126.461 40.8481C126.32 40.3741 126.249 39.8603 126.249 39.3065ZM127.559 39.1587V39.3065C127.559 39.6866 127.596 40.0433 127.671 40.3765C127.751 40.7097 127.873 41.003 128.037 41.2564C128.202 41.5099 128.41 41.7093 128.664 41.8548C128.917 41.9956 129.22 42.066 129.572 42.066C130.004 42.066 130.358 41.9745 130.635 41.7914C130.917 41.6084 131.142 41.3667 131.311 41.0664C131.48 40.766 131.611 40.4398 131.705 40.0879V38.3914C131.649 38.1332 131.567 37.8845 131.459 37.6452C131.355 37.4011 131.219 37.1853 131.05 36.9975C130.886 36.8051 130.682 36.6526 130.438 36.54C130.199 36.4273 129.915 36.371 129.586 36.371C129.229 36.371 128.922 36.4461 128.664 36.5963C128.41 36.7418 128.202 36.9436 128.037 37.2017C127.873 37.4551 127.751 37.7508 127.671 38.0887C127.596 38.4219 127.559 38.7785 127.559 39.1587ZM141.335 42.1012C141.645 42.1012 141.931 42.0378 142.194 41.9111C142.457 41.7844 142.673 41.6108 142.841 41.3902C143.01 41.1649 143.107 40.9091 143.13 40.6229H144.369C144.346 41.0734 144.193 41.4934 143.911 41.8829C143.635 42.2678 143.271 42.5799 142.82 42.8192C142.37 43.0538 141.875 43.1712 141.335 43.1712C140.762 43.1712 140.263 43.0703 139.836 42.8685C139.413 42.6667 139.061 42.3898 138.78 42.0378C138.503 41.6858 138.294 41.2822 138.153 40.827C138.017 40.3671 137.949 39.8814 137.949 39.3698V39.0742C137.949 38.5627 138.017 38.0793 138.153 37.6241C138.294 37.1641 138.503 36.7582 138.78 36.4062C139.061 36.0542 139.413 35.7774 139.836 35.5756C140.263 35.3738 140.762 35.2729 141.335 35.2729C141.931 35.2729 142.452 35.3949 142.898 35.6389C143.344 35.8783 143.693 36.2068 143.947 36.6244C144.205 37.0374 144.346 37.5067 144.369 38.0323H143.13C143.107 37.7179 143.017 37.434 142.863 37.1806C142.712 36.9271 142.506 36.7253 142.243 36.5752C141.985 36.4203 141.682 36.3429 141.335 36.3429C140.936 36.3429 140.601 36.4226 140.328 36.5822C140.061 36.7371 139.847 36.9483 139.688 37.2158C139.533 37.4786 139.42 37.7719 139.35 38.0957C139.284 38.4148 139.251 38.741 139.251 39.0742V39.3698C139.251 39.703 139.284 40.0316 139.35 40.3554C139.416 40.6792 139.526 40.9725 139.681 41.2353C139.84 41.4981 140.054 41.7093 140.321 41.8689C140.594 42.0237 140.931 42.1012 141.335 42.1012ZM147.136 32.2177V43.0304H145.833V32.2177H147.136ZM146.826 38.9334L146.284 38.9123C146.288 38.3914 146.366 37.9103 146.516 37.4692C146.666 37.0233 146.877 36.6362 147.15 36.3077C147.422 35.9792 147.746 35.7257 148.121 35.5474C148.501 35.3644 148.921 35.2729 149.381 35.2729C149.757 35.2729 150.094 35.3245 150.395 35.4277C150.695 35.5263 150.951 35.6858 151.162 35.9064C151.378 36.127 151.542 36.4133 151.655 36.7652C151.768 37.1125 151.824 37.5372 151.824 38.0394V43.0304H150.515V38.0253C150.515 37.6264 150.456 37.3073 150.339 37.0679C150.221 36.8239 150.05 36.6479 149.825 36.54C149.599 36.4273 149.322 36.371 148.994 36.371C148.67 36.371 148.374 36.4391 148.107 36.5752C147.844 36.7113 147.617 36.899 147.424 37.1383C147.236 37.3777 147.089 37.6522 146.981 37.9619C146.877 38.267 146.826 38.5908 146.826 38.9334ZM156.935 43.1712C156.404 43.1712 155.923 43.082 155.491 42.9037C155.064 42.7206 154.696 42.4649 154.386 42.1364C154.081 41.8079 153.847 41.4183 153.682 40.9678C153.518 40.5173 153.436 40.0245 153.436 39.4895V39.1939C153.436 38.5744 153.527 38.023 153.71 37.5396C153.893 37.0515 154.142 36.6385 154.457 36.3006C154.771 35.9627 155.128 35.707 155.527 35.5333C155.926 35.3597 156.339 35.2729 156.766 35.2729C157.31 35.2729 157.779 35.3667 158.173 35.5544C158.572 35.7422 158.899 36.005 159.152 36.3429C159.405 36.6761 159.593 37.0703 159.715 37.5255C159.837 37.976 159.898 38.4688 159.898 39.0038V39.5881H154.21V38.5251H158.596V38.4266C158.577 38.0887 158.507 37.7601 158.385 37.441C158.267 37.1219 158.08 36.8591 157.821 36.6526C157.563 36.4461 157.211 36.3429 156.766 36.3429C156.47 36.3429 156.198 36.4062 155.949 36.5329C155.7 36.6549 155.487 36.838 155.308 37.082C155.13 37.326 154.992 37.6241 154.893 37.976C154.795 38.328 154.745 38.7339 154.745 39.1939V39.4895C154.745 39.8509 154.795 40.1911 154.893 40.5102C154.996 40.8247 155.144 41.1016 155.337 41.3409C155.534 41.5802 155.771 41.768 156.048 41.9041C156.329 42.0402 156.648 42.1082 157.005 42.1082C157.465 42.1082 157.854 42.0144 158.173 41.8266C158.493 41.6389 158.772 41.3878 159.011 41.0734L159.8 41.6999C159.635 41.9486 159.427 42.1856 159.173 42.4109C158.92 42.6362 158.608 42.8192 158.237 42.96C157.871 43.1008 157.437 43.1712 156.935 43.1712ZM164.467 42.1012C164.777 42.1012 165.063 42.0378 165.326 41.9111C165.588 41.7844 165.804 41.6108 165.973 41.3902C166.142 41.1649 166.238 40.9091 166.262 40.6229H167.501C167.477 41.0734 167.325 41.4934 167.043 41.8829C166.766 42.2678 166.403 42.5799 165.952 42.8192C165.502 43.0538 165.006 43.1712 164.467 43.1712C163.894 43.1712 163.394 43.0703 162.967 42.8685C162.545 42.6667 162.193 42.3898 161.911 42.0378C161.635 41.6858 161.426 41.2822 161.285 40.827C161.149 40.3671 161.081 39.8814 161.081 39.3698V39.0742C161.081 38.5627 161.149 38.0793 161.285 37.6241C161.426 37.1641 161.635 36.7582 161.911 36.4062C162.193 36.0542 162.545 35.7774 162.967 35.5756C163.394 35.3738 163.894 35.2729 164.467 35.2729C165.063 35.2729 165.584 35.3949 166.03 35.6389C166.475 35.8783 166.825 36.2068 167.078 36.6244C167.337 37.0374 167.477 37.5067 167.501 38.0323H166.262C166.238 37.7179 166.149 37.434 165.994 37.1806C165.844 36.9271 165.638 36.7253 165.375 36.5752C165.117 36.4203 164.814 36.3429 164.467 36.3429C164.068 36.3429 163.732 36.4226 163.46 36.5822C163.193 36.7371 162.979 36.9483 162.82 37.2158C162.665 37.4786 162.552 37.7719 162.482 38.0957C162.416 38.4148 162.383 38.741 162.383 39.0742V39.3698C162.383 39.703 162.416 40.0316 162.482 40.3554C162.547 40.6792 162.658 40.9725 162.812 41.2353C162.972 41.4981 163.186 41.7093 163.453 41.8689C163.725 42.0237 164.063 42.1012 164.467 42.1012ZM170.274 32.2177V43.0304H168.965V32.2177H170.274ZM174.927 35.4137L171.605 38.9686L169.746 40.8974L169.641 39.5106L170.971 37.9197L173.337 35.4137H174.927ZM173.738 43.0304L171.021 39.398L171.696 38.2365L175.272 43.0304H173.738ZM175.927 39.3065V39.1446C175.927 38.5955 176.007 38.0863 176.166 37.617C176.326 37.143 176.556 36.7324 176.856 36.3851C177.157 36.0331 177.52 35.7609 177.947 35.5685C178.374 35.3714 178.853 35.2729 179.383 35.2729C179.918 35.2729 180.4 35.3714 180.827 35.5685C181.258 35.7609 181.624 36.0331 181.925 36.3851C182.23 36.7324 182.462 37.143 182.622 37.617C182.781 38.0863 182.861 38.5955 182.861 39.1446V39.3065C182.861 39.8556 182.781 40.3648 182.622 40.8341C182.462 41.3034 182.23 41.714 181.925 42.066C181.624 42.4133 181.261 42.6854 180.834 42.8826C180.411 43.075 179.933 43.1712 179.398 43.1712C178.863 43.1712 178.382 43.075 177.954 42.8826C177.527 42.6854 177.161 42.4133 176.856 42.066C176.556 41.714 176.326 41.3034 176.166 40.8341C176.007 40.3648 175.927 39.8556 175.927 39.3065ZM177.229 39.1446V39.3065C177.229 39.6866 177.274 40.0456 177.363 40.3835C177.452 40.7167 177.586 41.0124 177.764 41.2705C177.947 41.5286 178.175 41.7328 178.447 41.8829C178.719 42.0284 179.036 42.1012 179.398 42.1012C179.754 42.1012 180.066 42.0284 180.334 41.8829C180.606 41.7328 180.831 41.5286 181.01 41.2705C181.188 41.0124 181.322 40.7167 181.411 40.3835C181.505 40.0456 181.552 39.6866 181.552 39.3065V39.1446C181.552 38.7691 181.505 38.4148 181.411 38.0816C181.322 37.7437 181.186 37.4457 181.003 37.1876C180.824 36.9248 180.599 36.7183 180.327 36.5681C180.059 36.418 179.745 36.3429 179.383 36.3429C179.027 36.3429 178.712 36.418 178.44 36.5681C178.173 36.7183 177.947 36.9248 177.764 37.1876C177.586 37.4457 177.452 37.7437 177.363 38.0816C177.274 38.4148 177.229 38.7691 177.229 39.1446ZM189.154 41.2705V35.4137H190.464V43.0304H189.218L189.154 41.2705ZM189.401 39.6655L189.943 39.6514C189.943 40.1583 189.889 40.6276 189.781 41.0593C189.678 41.4864 189.509 41.8571 189.274 42.1716C189.039 42.486 188.732 42.7324 188.352 42.9107C187.972 43.0844 187.509 43.1712 186.965 43.1712C186.594 43.1712 186.254 43.1172 185.944 43.0093C185.639 42.9013 185.376 42.7347 185.156 42.5095C184.935 42.2842 184.764 41.9909 184.642 41.6295C184.525 41.2682 184.466 40.8341 184.466 40.3272V35.4137H185.768V40.3413C185.768 40.6839 185.806 40.9678 185.881 41.1931C185.961 41.4136 186.066 41.5896 186.198 41.721C186.334 41.8477 186.484 41.9369 186.648 41.9885C186.817 42.0402 186.991 42.066 187.169 42.066C187.723 42.066 188.162 41.9604 188.486 41.7492C188.809 41.5333 189.042 41.2447 189.182 40.8833C189.328 40.5173 189.401 40.1113 189.401 39.6655ZM195.638 35.4137V36.4133H191.52V35.4137H195.638ZM192.913 33.5623H194.216V41.1438C194.216 41.4019 194.256 41.5967 194.335 41.7281C194.415 41.8595 194.518 41.9463 194.645 41.9885C194.772 42.0308 194.908 42.0519 195.053 42.0519C195.161 42.0519 195.274 42.0425 195.391 42.0237C195.513 42.0003 195.605 41.9815 195.666 41.9674L195.673 43.0304C195.57 43.0632 195.434 43.0937 195.265 43.1219C195.1 43.1547 194.901 43.1712 194.666 43.1712C194.347 43.1712 194.054 43.1078 193.786 42.9811C193.519 42.8544 193.305 42.6432 193.146 42.3476C192.991 42.0472 192.913 41.6436 192.913 41.1368V33.5623ZM197.186 42.3405C197.186 42.1199 197.254 41.9346 197.391 41.7844C197.531 41.6295 197.733 41.5521 197.996 41.5521C198.259 41.5521 198.458 41.6295 198.594 41.7844C198.735 41.9346 198.805 42.1199 198.805 42.3405C198.805 42.5564 198.735 42.7394 198.594 42.8896C198.458 43.0398 198.259 43.1149 197.996 43.1149C197.733 43.1149 197.531 43.0398 197.391 42.8896C197.254 42.7394 197.186 42.5564 197.186 42.3405Z" fill="#2A2F45"/>
</svg>
