<svg width="50" height="50" viewBox="0 0 50 50" fill="none" xmlns="http://www.w3.org/2000/svg">
<rect width="50" height="50" rx="9.375" fill="#2565FF"/>
<path d="M29.2803 18.4766C29.1767 17.5074 28.7402 16.7528 27.9708 16.2127C27.2088 15.6726 26.2174 15.4026 24.9967 15.4026C24.1385 15.4026 23.4024 15.5321 22.7884 15.791C22.1743 16.05 21.7045 16.4014 21.379 16.8453C21.0535 17.2892 20.887 17.7959 20.8796 18.3656C20.8796 18.8391 20.9869 19.2497 21.2015 19.5974C21.4234 19.9451 21.723 20.241 22.1003 20.4852C22.4776 20.7219 22.8956 20.9217 23.3543 21.0844C23.813 21.2472 24.2754 21.3841 24.7415 21.495L26.8722 22.0277C27.7304 22.2274 28.5553 22.4975 29.3469 22.8378C30.1459 23.1781 30.8598 23.6072 31.4887 24.1251C32.1249 24.643 32.628 25.2681 32.9979 26.0005C33.3678 26.733 33.5528 27.5911 33.5528 28.5751C33.5528 29.9068 33.2124 31.0794 32.5318 32.093C31.8512 33.0991 30.8672 33.887 29.5799 34.4567C28.3 35.0189 26.7501 35.3001 24.9301 35.3001C23.162 35.3001 21.6269 35.0263 20.3248 34.4789C19.0301 33.9314 18.0165 33.1324 17.2841 32.0819C16.5591 31.0313 16.167 29.7514 16.1078 28.2422H20.1583C20.2175 29.0338 20.4616 29.6922 20.8907 30.2175C21.3198 30.7428 21.8784 31.1349 22.5664 31.3938C23.2619 31.6528 24.0387 31.7822 24.8969 31.7822C25.792 31.7822 26.5762 31.6491 27.2495 31.3827C27.9301 31.109 28.4628 30.7317 28.8475 30.2508C29.2322 29.7625 29.4283 29.1929 29.4357 28.5418C29.4283 27.95 29.2544 27.4617 28.9141 27.077C28.5738 26.6849 28.0966 26.3593 27.4825 26.1004C26.8759 25.8341 26.1656 25.5973 25.3518 25.3902L22.7662 24.7243C20.8944 24.2435 19.4148 23.5147 18.3273 22.5382C17.2471 21.5542 16.707 20.2484 16.707 18.6208C16.707 17.2818 17.0696 16.1091 17.7946 15.103C18.527 14.0968 19.5221 13.3163 20.7798 12.7615C22.0375 12.1992 23.4616 11.9181 25.0522 11.9181C26.665 11.9181 28.0781 12.1992 29.2914 12.7615C30.5121 13.3163 31.4702 14.0894 32.1656 15.0808C32.861 16.0647 33.2198 17.1967 33.242 18.4766H29.2803Z" fill="white"/>
</svg>
