<svg width="40" height="40" viewBox="0 0 40 40" fill="none" xmlns="http://www.w3.org/2000/svg">
<rect x="39" y="39" width="38" height="38" rx="19" transform="rotate(-180 39 39)" stroke="#0C0B0B" stroke-width="2"/>
<path d="M15.1886 17.7239C15.1001 17.6354 15.1001 17.4911 15.1886 17.4026L19.84 12.7522C19.9285 12.6637 20.0717 12.6637 20.1603 12.7522L24.8107 17.4026C24.8551 17.447 24.877 17.5042 24.8771 17.5627C24.8771 17.6214 24.8551 17.6795 24.8107 17.7239L24.8107 17.7249C24.7221 17.8124 24.5786 17.812 24.4904 17.7239L21.0802 14.3127L20.2267 13.4592L20.2267 27.0881C20.2266 27.2131 20.1251 27.3146 20.0001 27.3147C19.875 27.3147 19.7736 27.2132 19.7736 27.0881L19.7736 13.4592L15.5089 17.7239C15.4204 17.8121 15.2771 17.8122 15.1886 17.7239Z" fill="#0C0B0B" stroke="#0C0B0B"/>
</svg>
