<svg width="278" height="326" viewBox="0 0 278 326" fill="none" xmlns="http://www.w3.org/2000/svg">
<rect x="4.64023" y="54.1357" width="273" height="271.453" rx="7.73371" fill="#E9EFFC"/>
<rect x="18.5609" y="68.0566" width="252.119" height="242.839" fill="#F5FAFA"/>
<g filter="url(#filter0_d_560_1253)">
<g clip-path="url(#clip0_560_1253)">
<rect x="34.0283" y="27.8418" width="206.49" height="134.567" rx="7.73371" fill="#2565FF"/>
<path d="M240.132 28.2285L31.3216 163.182H240.132V28.2285Z" fill="#3972FB"/>
<rect x="49.4957" y="43.3086" width="32.4816" height="32.4816" rx="7.73371" fill="#FEE900"/>
<rect x="58.0028" y="51.8164" width="15.4674" height="15.4674" rx="3.09348" fill="#54BD95"/>
<path d="M69.6033 64.7055V58.2607" stroke="#F9F8FE" stroke-width="1.28895" stroke-linecap="round" stroke-linejoin="round"/>
<path d="M65.7364 64.7052V54.3936" stroke="#F9F8FE" stroke-width="1.28895" stroke-linecap="round" stroke-linejoin="round"/>
<path d="M61.8695 64.7057V60.8389" stroke="#F9F8FE" stroke-width="1.28895" stroke-linecap="round" stroke-linejoin="round"/>
<path d="M60.5525 108.55C60.4646 107.77 60.1021 107.166 59.465 106.738C58.8278 106.304 58.0259 106.087 57.0592 106.087C56.3671 106.087 55.7684 106.197 55.2631 106.416C54.7577 106.631 54.365 106.927 54.0849 107.306C53.8102 107.68 53.6729 108.105 53.6729 108.583C53.6729 108.984 53.7663 109.33 53.953 109.621C54.1453 109.912 54.3952 110.157 54.7028 110.355C55.0159 110.547 55.3509 110.709 55.708 110.841C56.065 110.967 56.4083 111.071 56.7378 111.154L58.3857 111.582C58.9239 111.714 59.4759 111.893 60.0417 112.118C60.6074 112.343 61.132 112.64 61.6154 113.008C62.0987 113.376 62.4887 113.831 62.7853 114.375C63.0874 114.919 63.2384 115.57 63.2384 116.328C63.2384 117.284 62.9913 118.132 62.4969 118.874C62.0081 119.615 61.2968 120.2 60.363 120.629C59.4348 121.057 58.3115 121.271 56.9933 121.271C55.7299 121.271 54.6369 121.071 53.7141 120.67C52.7913 120.269 52.0691 119.7 51.5472 118.964C51.0254 118.223 50.7371 117.344 50.6821 116.328H53.2363C53.2857 116.938 53.4834 117.446 53.8295 117.852C54.181 118.253 54.6286 118.552 55.1724 118.75C55.7217 118.942 56.3231 119.039 56.9768 119.039C57.6963 119.039 58.3362 118.926 58.8965 118.701C59.4622 118.47 59.9071 118.151 60.2312 117.745C60.5553 117.333 60.7173 116.852 60.7173 116.303C60.7173 115.803 60.5745 115.394 60.2889 115.076C60.0087 114.757 59.627 114.493 59.1436 114.285C58.6658 114.076 58.1247 113.892 57.5206 113.733L55.5267 113.189C54.1755 112.821 53.1044 112.28 52.3135 111.566C51.528 110.852 51.1353 109.907 51.1353 108.732C51.1353 107.759 51.3989 106.911 51.9262 106.186C52.4535 105.461 53.1676 104.898 54.0684 104.497C54.9692 104.09 55.9853 103.887 57.1168 103.887C58.2593 103.887 59.2672 104.087 60.1406 104.488C61.0194 104.889 61.7115 105.441 62.2168 106.144C62.7221 106.842 62.9858 107.644 63.0078 108.55H60.5525ZM67.6401 125.737C67.2721 125.737 66.9371 125.707 66.635 125.646C66.3329 125.591 66.1077 125.531 65.9594 125.465L66.5526 123.446C67.003 123.567 67.404 123.619 67.7555 123.603C68.107 123.587 68.4174 123.455 68.6865 123.208C68.9611 122.96 69.2028 122.557 69.4115 121.996L69.7164 121.156L65.086 108.336H67.7225L70.9275 118.157H71.0594L74.2643 108.336H76.9091L71.6938 122.68C71.4521 123.339 71.1445 123.897 70.771 124.353C70.3975 124.814 69.9526 125.16 69.4363 125.391C68.9199 125.622 68.3212 125.737 67.6401 125.737ZM81.6877 113.477V120.991H79.2242V108.336H81.5888V110.396H81.7454C82.0365 109.726 82.4924 109.187 83.1131 108.781C83.7392 108.374 84.5274 108.171 85.4777 108.171C86.34 108.171 87.0953 108.353 87.7434 108.715C88.3915 109.072 88.8941 109.605 89.2511 110.313C89.6082 111.022 89.7867 111.898 89.7867 112.942V120.991H87.3232V113.238C87.3232 112.321 87.0843 111.604 86.6064 111.088C86.1286 110.566 85.4722 110.305 84.6373 110.305C84.066 110.305 83.558 110.429 83.1131 110.676C82.6736 110.923 82.3249 111.286 82.0667 111.763C81.814 112.236 81.6877 112.807 81.6877 113.477ZM98.4212 121.247C97.1963 121.247 96.1417 120.969 95.2574 120.414C94.3786 119.854 93.703 119.083 93.2306 118.099C92.7582 117.116 92.522 115.99 92.522 114.721C92.522 113.436 92.7637 112.302 93.2471 111.319C93.7304 110.33 94.4115 109.558 95.2904 109.003C96.1692 108.449 97.2046 108.171 98.3965 108.171C99.3577 108.171 100.215 108.35 100.967 108.707C101.72 109.058 102.327 109.553 102.788 110.19C103.255 110.827 103.532 111.571 103.62 112.423H101.222C101.091 111.829 100.789 111.319 100.316 110.89C99.8493 110.462 99.2231 110.248 98.4377 110.248C97.7511 110.248 97.1496 110.429 96.6333 110.791C96.1225 111.148 95.7243 111.659 95.4387 112.324C95.153 112.983 95.0102 113.763 95.0102 114.664C95.0102 115.586 95.1503 116.383 95.4304 117.053C95.7106 117.723 96.106 118.242 96.6168 118.61C97.1332 118.978 97.7401 119.162 98.4377 119.162C98.9046 119.162 99.3275 119.077 99.7065 118.907C100.091 118.731 100.412 118.481 100.67 118.157C100.934 117.833 101.118 117.443 101.222 116.987H103.62C103.532 117.805 103.266 118.536 102.821 119.179C102.376 119.821 101.78 120.327 101.033 120.695C100.291 121.063 99.4209 121.247 98.4212 121.247ZM112.395 125.737V108.336H114.8V110.388H115.006C115.149 110.124 115.355 109.819 115.624 109.473C115.893 109.127 116.267 108.825 116.745 108.567C117.223 108.303 117.854 108.171 118.64 108.171C119.661 108.171 120.573 108.429 121.375 108.946C122.177 109.462 122.806 110.206 123.262 111.179C123.723 112.151 123.954 113.321 123.954 114.688C123.954 116.056 123.726 117.229 123.27 118.206C122.814 119.179 122.188 119.928 121.392 120.456C120.595 120.977 119.686 121.238 118.665 121.238C117.896 121.238 117.267 121.109 116.778 120.851C116.294 120.593 115.915 120.291 115.641 119.945C115.366 119.599 115.155 119.291 115.006 119.022H114.858V125.737H112.395ZM114.809 114.664C114.809 115.553 114.938 116.333 115.196 117.004C115.454 117.674 115.828 118.198 116.316 118.577C116.805 118.951 117.404 119.137 118.112 119.137C118.849 119.137 119.464 118.942 119.958 118.552C120.452 118.157 120.826 117.621 121.079 116.946C121.337 116.27 121.466 115.51 121.466 114.664C121.466 113.829 121.339 113.079 121.087 112.414C120.84 111.75 120.466 111.225 119.966 110.841C119.472 110.456 118.854 110.264 118.112 110.264C117.398 110.264 116.794 110.448 116.3 110.816C115.811 111.184 115.44 111.698 115.188 112.357C114.935 113.016 114.809 113.785 114.809 114.664ZM126.714 120.991V108.336H129.095V110.346H129.227C129.458 109.665 129.864 109.13 130.446 108.74C131.034 108.344 131.699 108.147 132.44 108.147C132.594 108.147 132.775 108.152 132.984 108.163C133.198 108.174 133.366 108.188 133.487 108.204V110.561C133.388 110.533 133.212 110.503 132.959 110.47C132.707 110.432 132.454 110.412 132.201 110.412C131.619 110.412 131.1 110.536 130.644 110.783C130.194 111.025 129.837 111.363 129.573 111.796C129.309 112.225 129.178 112.714 129.178 113.263V120.991H126.714ZM140.496 121.247C139.309 121.247 138.274 120.975 137.39 120.431C136.505 119.887 135.819 119.126 135.33 118.149C134.841 117.171 134.597 116.029 134.597 114.721C134.597 113.409 134.841 112.261 135.33 111.277C135.819 110.294 136.505 109.531 137.39 108.987C138.274 108.443 139.309 108.171 140.496 108.171C141.682 108.171 142.718 108.443 143.602 108.987C144.486 109.531 145.173 110.294 145.662 111.277C146.151 112.261 146.395 113.409 146.395 114.721C146.395 116.029 146.151 117.171 145.662 118.149C145.173 119.126 144.486 119.887 143.602 120.431C142.718 120.975 141.682 121.247 140.496 121.247ZM140.504 119.179C141.273 119.179 141.91 118.975 142.416 118.569C142.921 118.162 143.294 117.621 143.536 116.946C143.783 116.27 143.907 115.526 143.907 114.713C143.907 113.906 143.783 113.164 143.536 112.489C143.294 111.807 142.921 111.261 142.416 110.849C141.91 110.437 141.273 110.231 140.504 110.231C139.73 110.231 139.087 110.437 138.576 110.849C138.071 111.261 137.695 111.807 137.447 112.489C137.206 113.164 137.085 113.906 137.085 114.713C137.085 115.526 137.206 116.27 137.447 116.946C137.695 117.621 138.071 118.162 138.576 118.569C139.087 118.975 139.73 119.179 140.504 119.179ZM153.882 121.238C152.861 121.238 151.949 120.977 151.147 120.456C150.35 119.928 149.724 119.179 149.268 118.206C148.818 117.229 148.593 116.056 148.593 114.688C148.593 113.321 148.821 112.151 149.277 111.179C149.738 110.206 150.37 109.462 151.172 108.946C151.974 108.429 152.883 108.171 153.899 108.171C154.684 108.171 155.316 108.303 155.794 108.567C156.277 108.825 156.651 109.127 156.914 109.473C157.183 109.819 157.392 110.124 157.54 110.388H157.689V104.118H160.152V120.991H157.746V119.022H157.54C157.392 119.291 157.178 119.599 156.898 119.945C156.623 120.291 156.244 120.593 155.761 120.851C155.277 121.109 154.651 121.238 153.882 121.238ZM154.426 119.137C155.135 119.137 155.733 118.951 156.222 118.577C156.717 118.198 157.09 117.674 157.343 117.004C157.601 116.333 157.73 115.553 157.73 114.664C157.73 113.785 157.604 113.016 157.351 112.357C157.098 111.698 156.728 111.184 156.239 110.816C155.75 110.448 155.146 110.264 154.426 110.264C153.685 110.264 153.067 110.456 152.572 110.841C152.078 111.225 151.704 111.75 151.452 112.414C151.205 113.079 151.081 113.829 151.081 114.664C151.081 115.51 151.207 116.27 151.46 116.946C151.713 117.621 152.086 118.157 152.581 118.552C153.08 118.942 153.696 119.137 154.426 119.137ZM171.685 115.743V108.336H174.156V120.991H171.734V118.8H171.602C171.311 119.475 170.844 120.038 170.202 120.489C169.565 120.934 168.771 121.156 167.821 121.156C167.008 121.156 166.288 120.977 165.662 120.62C165.041 120.258 164.553 119.722 164.195 119.014C163.844 118.305 163.668 117.429 163.668 116.386V108.336H166.132V116.089C166.132 116.951 166.371 117.638 166.848 118.149C167.326 118.66 167.947 118.915 168.71 118.915C169.172 118.915 169.631 118.8 170.086 118.569C170.548 118.338 170.93 117.989 171.232 117.523C171.539 117.056 171.69 116.462 171.685 115.743ZM182.797 121.247C181.572 121.247 180.518 120.969 179.633 120.414C178.755 119.854 178.079 119.083 177.607 118.099C177.134 117.116 176.898 115.99 176.898 114.721C176.898 113.436 177.14 112.302 177.623 111.319C178.106 110.33 178.788 109.558 179.666 109.003C180.545 108.449 181.581 108.171 182.772 108.171C183.734 108.171 184.591 108.35 185.343 108.707C186.096 109.058 186.702 109.553 187.164 110.19C187.631 110.827 187.908 111.571 187.996 112.423H185.598C185.467 111.829 185.165 111.319 184.692 110.89C184.225 110.462 183.599 110.248 182.814 110.248C182.127 110.248 181.526 110.429 181.009 110.791C180.498 111.148 180.1 111.659 179.815 112.324C179.529 112.983 179.386 113.763 179.386 114.664C179.386 115.586 179.526 116.383 179.806 117.053C180.087 117.723 180.482 118.242 180.993 118.61C181.509 118.978 182.116 119.162 182.814 119.162C183.281 119.162 183.703 119.077 184.082 118.907C184.467 118.731 184.788 118.481 185.046 118.157C185.31 117.833 185.494 117.443 185.598 116.987H187.996C187.908 117.805 187.642 118.536 187.197 119.179C186.752 119.821 186.156 120.327 185.409 120.695C184.667 121.063 183.797 121.247 182.797 121.247ZM196.538 108.336V110.313H189.625V108.336H196.538ZM191.479 105.304H193.943V117.275C193.943 117.753 194.014 118.113 194.157 118.355C194.3 118.591 194.484 118.753 194.709 118.841C194.939 118.923 195.189 118.964 195.459 118.964C195.656 118.964 195.829 118.951 195.978 118.923C196.126 118.896 196.241 118.874 196.324 118.857L196.769 120.892C196.626 120.947 196.423 121.002 196.159 121.057C195.895 121.118 195.566 121.15 195.17 121.156C194.522 121.167 193.918 121.052 193.358 120.81C192.797 120.568 192.344 120.195 191.998 119.689C191.652 119.184 191.479 118.55 191.479 117.786V105.304Z" fill="white"/>
<path d="M54.3106 134.576V144.7H52.7782V136.109H52.7188L50.2966 137.69V136.227L52.8227 134.576H54.3106ZM60.5739 144.868C59.7929 144.865 59.1255 144.659 58.5719 144.25C58.0182 143.842 57.5947 143.247 57.3014 142.466C57.0081 141.685 56.8614 140.744 56.8614 139.643C56.8614 138.546 57.0081 137.608 57.3014 136.83C57.598 136.052 58.0231 135.459 58.5768 135.051C59.1338 134.642 59.7995 134.438 60.5739 134.438C61.3484 134.438 62.0125 134.644 62.5661 135.056C63.1198 135.464 63.5433 136.057 63.8366 136.835C64.1332 137.61 64.2815 138.546 64.2815 139.643C64.2815 140.747 64.1349 141.69 63.8415 142.471C63.5482 143.248 63.1247 143.843 62.5711 144.255C62.0174 144.664 61.3517 144.868 60.5739 144.868ZM60.5739 143.548C61.2594 143.548 61.795 143.214 62.1806 142.545C62.5694 141.876 62.7639 140.909 62.7639 139.643C62.7639 138.803 62.6749 138.092 62.4969 137.512C62.3223 136.929 62.0701 136.488 61.7406 136.188C61.4143 135.884 61.0254 135.733 60.5739 135.733C59.8917 135.733 59.3562 136.069 58.9673 136.741C58.5784 137.414 58.3824 138.381 58.3791 139.643C58.3791 140.487 58.4664 141.2 58.6411 141.784C58.819 142.364 59.0711 142.804 59.3974 143.103C59.7237 143.4 60.1158 143.548 60.5739 143.548ZM69.3769 144.839C68.7574 144.839 68.2004 144.72 67.7061 144.483C67.215 144.242 66.8228 143.913 66.5295 143.494C66.2362 143.075 66.0797 142.598 66.0599 142.06H67.5429C67.5792 142.495 67.772 142.853 68.1213 143.133C68.4706 143.413 68.8892 143.553 69.3769 143.553C69.7658 143.553 70.1102 143.464 70.4101 143.286C70.7133 143.105 70.9506 142.856 71.122 142.54C71.2966 142.224 71.384 141.863 71.384 141.457C71.384 141.045 71.295 140.678 71.117 140.355C70.9391 140.032 70.6935 139.778 70.3805 139.594C70.0707 139.409 69.7147 139.315 69.3127 139.312C69.0062 139.312 68.698 139.365 68.3883 139.47C68.0785 139.576 67.828 139.714 67.6369 139.885L66.2379 139.678L66.8064 134.576H72.3727V135.886H68.0768L67.7555 138.719H67.8148C68.0126 138.528 68.2746 138.368 68.6008 138.239C68.9304 138.111 69.283 138.046 69.6587 138.046C70.275 138.046 70.8237 138.193 71.3049 138.486C71.7893 138.78 72.17 139.18 72.4468 139.688C72.7269 140.192 72.8653 140.772 72.8621 141.428C72.8653 142.083 72.717 142.668 72.4171 143.183C72.1205 143.697 71.7086 144.102 71.1813 144.399C70.6573 144.692 70.0558 144.839 69.3769 144.839ZM78.2022 144.839C77.7507 144.832 77.3058 144.75 76.8675 144.591C76.4324 144.433 76.037 144.17 75.681 143.8C75.3251 143.431 75.04 142.935 74.8258 142.313C74.6149 141.69 74.5094 140.912 74.5094 139.979C74.5094 139.096 74.5968 138.312 74.7715 137.626C74.9494 136.941 75.2048 136.362 75.5377 135.891C75.8705 135.416 76.2726 135.056 76.7439 134.808C77.2152 134.561 77.7441 134.438 78.3307 134.438C78.9338 134.438 79.4694 134.556 79.9373 134.794C80.4053 135.031 80.7843 135.359 81.0743 135.777C81.3676 136.196 81.5538 136.672 81.6329 137.206H80.1252C80.023 136.784 79.8203 136.44 79.5171 136.173C79.2139 135.906 78.8185 135.772 78.3307 135.772C77.5892 135.772 77.0108 136.095 76.5956 136.741C76.1836 137.387 75.976 138.285 75.9727 139.435H76.0469C76.2215 139.149 76.4357 138.905 76.6895 138.704C76.9466 138.499 77.2333 138.343 77.5497 138.234C77.8693 138.122 78.2055 138.066 78.5581 138.066C79.1447 138.066 79.6753 138.209 80.1499 138.496C80.6278 138.78 81.0084 139.172 81.2918 139.673C81.5752 140.174 81.717 140.747 81.717 141.393C81.717 142.039 81.5703 142.624 81.277 143.148C80.987 143.672 80.5783 144.087 80.051 144.394C79.5237 144.697 78.9074 144.845 78.2022 144.839ZM78.1972 143.553C78.5861 143.553 78.9338 143.458 79.2403 143.267C79.5468 143.075 79.789 142.818 79.967 142.495C80.145 142.172 80.2339 141.812 80.2339 141.413C80.2339 141.024 80.1466 140.67 79.9719 140.35C79.8006 140.03 79.5633 139.777 79.2601 139.589C78.9602 139.401 78.6174 139.307 78.2318 139.307C77.9385 139.307 77.6666 139.363 77.4162 139.475C77.169 139.587 76.9515 139.742 76.7637 139.94C76.5758 140.137 76.4275 140.365 76.3187 140.622C76.2133 140.876 76.1606 141.144 76.1606 141.428C76.1606 141.807 76.2479 142.158 76.4226 142.481C76.6005 142.804 76.8427 143.064 77.1492 143.262C77.459 143.456 77.8084 143.553 78.1972 143.553ZM88.8676 134.576V144.7H87.3401V134.576H88.8676ZM94.518 137.107V138.294H90.3704V137.107H94.518ZM91.4827 135.288H92.9608V142.471C92.9608 142.757 93.0036 142.973 93.0893 143.118C93.175 143.26 93.2854 143.357 93.4205 143.41C93.5589 143.459 93.7089 143.484 93.8704 143.484C93.989 143.484 94.0928 143.476 94.1818 143.459C94.2708 143.443 94.34 143.43 94.3894 143.42L94.6564 144.641C94.5707 144.674 94.4487 144.707 94.2906 144.74C94.1324 144.776 93.9346 144.796 93.6973 144.799C93.3085 144.806 92.9459 144.736 92.6098 144.591C92.2736 144.446 92.0018 144.222 91.7941 143.919C91.5865 143.616 91.4827 143.235 91.4827 142.777V135.288ZM99.344 144.853C98.5959 144.853 97.9516 144.694 97.4111 144.374C96.8739 144.051 96.4587 143.598 96.1654 143.014C95.8753 142.428 95.7303 141.741 95.7303 140.953C95.7303 140.175 95.8753 139.49 96.1654 138.897C96.4587 138.303 96.8673 137.84 97.3913 137.508C97.9186 137.175 98.5349 137.008 99.2402 137.008C99.6686 137.008 100.084 137.079 100.486 137.221C100.888 137.363 101.249 137.585 101.569 137.888C101.888 138.191 102.14 138.585 102.325 139.07C102.509 139.551 102.602 140.136 102.602 140.825V141.349H96.5658V140.241H101.153C101.153 139.852 101.074 139.508 100.916 139.208C100.758 138.905 100.535 138.666 100.249 138.491C99.9652 138.317 99.6323 138.229 99.25 138.229C98.8348 138.229 98.4723 138.331 98.1625 138.536C97.856 138.737 97.6187 139 97.4506 139.327C97.2859 139.65 97.2035 140.001 97.2035 140.38V141.245C97.2035 141.752 97.2925 142.184 97.4704 142.54C97.6517 142.896 97.9038 143.168 98.2268 143.356C98.5497 143.54 98.9271 143.632 99.3588 143.632C99.6389 143.632 99.8943 143.593 100.125 143.514C100.356 143.431 100.555 143.309 100.723 143.148C100.891 142.986 101.02 142.787 101.109 142.55L102.508 142.802C102.396 143.214 102.195 143.575 101.905 143.885C101.618 144.191 101.257 144.43 100.822 144.601C100.39 144.769 99.8976 144.853 99.344 144.853ZM104.242 144.7V137.107H105.66V138.343H105.754C105.913 137.924 106.171 137.598 106.53 137.364C106.89 137.127 107.32 137.008 107.821 137.008C108.328 137.008 108.753 137.127 109.096 137.364C109.442 137.601 109.698 137.928 109.862 138.343H109.941C110.123 137.938 110.411 137.615 110.807 137.374C111.202 137.13 111.673 137.008 112.22 137.008C112.909 137.008 113.471 137.224 113.906 137.656C114.344 138.088 114.564 138.738 114.564 139.608V144.7H113.085V139.747C113.085 139.233 112.945 138.86 112.665 138.63C112.385 138.399 112.051 138.284 111.662 138.284C111.181 138.284 110.807 138.432 110.54 138.729C110.273 139.022 110.139 139.399 110.139 139.861V144.7H108.666V139.653C108.666 139.241 108.538 138.91 108.28 138.659C108.023 138.409 107.689 138.284 107.277 138.284C106.997 138.284 106.738 138.358 106.501 138.506C106.267 138.651 106.077 138.854 105.932 139.114C105.791 139.374 105.72 139.676 105.72 140.019V144.7H104.242ZM122.234 138.961L120.895 139.198C120.839 139.027 120.75 138.864 120.628 138.709C120.509 138.554 120.348 138.427 120.143 138.328C119.939 138.229 119.684 138.18 119.377 138.18C118.959 138.18 118.609 138.274 118.329 138.462C118.049 138.646 117.909 138.885 117.909 139.178C117.909 139.432 118.003 139.636 118.191 139.791C118.379 139.946 118.682 140.073 119.1 140.172L120.307 140.449C121.005 140.61 121.526 140.859 121.869 141.195C122.211 141.531 122.383 141.968 122.383 142.505C122.383 142.96 122.251 143.365 121.987 143.721C121.727 144.074 121.363 144.351 120.895 144.552C120.43 144.753 119.891 144.853 119.278 144.853C118.428 144.853 117.734 144.672 117.197 144.31C116.66 143.944 116.33 143.425 116.208 142.752L117.637 142.535C117.726 142.907 117.909 143.189 118.186 143.38C118.463 143.568 118.824 143.662 119.268 143.662C119.753 143.662 120.14 143.562 120.43 143.361C120.72 143.156 120.865 142.907 120.865 142.614C120.865 142.377 120.776 142.177 120.598 142.016C120.424 141.854 120.155 141.732 119.792 141.65L118.507 141.368C117.799 141.207 117.275 140.95 116.935 140.597C116.599 140.245 116.431 139.798 116.431 139.257C116.431 138.809 116.556 138.417 116.807 138.081C117.057 137.745 117.403 137.483 117.845 137.295C118.286 137.104 118.792 137.008 119.362 137.008C120.183 137.008 120.829 137.186 121.3 137.542C121.771 137.895 122.083 138.368 122.234 138.961Z" fill="white"/>
</g>
</g>
<g filter="url(#filter1_d_560_1253)">
<rect x="202.623" y="3.86719" width="51.0425" height="51.0425" rx="7.73371" fill="white"/>
</g>
<path d="M228.145 19.334C232.843 19.334 236.651 22.8707 236.651 27.2334C236.651 27.9813 236.536 28.7039 236.327 29.3896C239.075 29.423 241.292 31.6605 241.292 34.416C241.292 37.1922 239.041 39.4424 236.265 39.4424H220.024C217.248 39.4424 214.997 37.1922 214.997 34.416C214.997 31.6608 217.214 29.4235 219.961 29.3896C219.752 28.704 219.638 27.9812 219.638 27.2334C219.638 22.8707 223.446 19.334 228.145 19.334Z" fill="#54BD95"/>
<rect x="255.986" y="67.2832" width="21.6544" height="111.365" rx="10.8272" fill="#2565FF"/>
<path d="M73.4704 205.33H236.265" stroke="#E7ECF3" stroke-width="1.54674" stroke-dasharray="9.28 9.28"/>
<path d="M73.4704 235.105H236.265" stroke="#E7ECF3" stroke-width="1.54674" stroke-dasharray="9.28 9.28"/>
<path d="M73.4704 264.881H236.265" stroke="#E7ECF3" stroke-width="1.54674" stroke-dasharray="9.28 9.28"/>
<rect x="39.0554" y="185.996" width="204.943" height="102.858" rx="6.57365" stroke="#E7ECF3" stroke-width="0.773371"/>
<rect x="78.8839" y="226.598" width="13.9207" height="49.4958" rx="6.96034" fill="#54BD95"/>
<rect x="113.686" y="201.851" width="13.9207" height="49.4958" rx="6.96034" fill="#2565FF"/>
<rect x="148.487" y="212.678" width="13.9207" height="49.4958" rx="6.96034" fill="#54BD95"/>
<rect x="183.289" y="226.598" width="13.9207" height="49.4958" rx="6.96034" fill="#2565FF"/>
<rect x="218.091" y="205.717" width="13.9207" height="49.4958" rx="6.96034" fill="#54BD95"/>
<defs>
<filter id="filter0_d_560_1253" x="-7.62939e-06" y="4.64066" width="274.547" height="202.623" filterUnits="userSpaceOnUse" color-interpolation-filters="sRGB">
<feFlood flood-opacity="0" result="BackgroundImageFix"/>
<feColorMatrix in="SourceAlpha" type="matrix" values="0 0 0 0 0 0 0 0 0 0 0 0 0 0 0 0 0 0 127 0" result="hardAlpha"/>
<feOffset dy="10.8272"/>
<feGaussianBlur stdDeviation="17.0142"/>
<feComposite in2="hardAlpha" operator="out"/>
<feColorMatrix type="matrix" values="0 0 0 0 0 0 0 0 0 0 0 0 0 0 0 0 0 0 0.15 0"/>
<feBlend mode="normal" in2="BackgroundImageFix" result="effect1_dropShadow_560_1253"/>
<feBlend mode="normal" in="SourceGraphic" in2="effect1_dropShadow_560_1253" result="shape"/>
</filter>
<filter id="filter1_d_560_1253" x="195.663" y="0.00033164" width="64.9632" height="64.9636" filterUnits="userSpaceOnUse" color-interpolation-filters="sRGB">
<feFlood flood-opacity="0" result="BackgroundImageFix"/>
<feColorMatrix in="SourceAlpha" type="matrix" values="0 0 0 0 0 0 0 0 0 0 0 0 0 0 0 0 0 0 127 0" result="hardAlpha"/>
<feOffset dy="3.09348"/>
<feGaussianBlur stdDeviation="3.48017"/>
<feComposite in2="hardAlpha" operator="out"/>
<feColorMatrix type="matrix" values="0 0 0 0 0 0 0 0 0 0 0 0 0 0 0 0 0 0 0.05 0"/>
<feBlend mode="normal" in2="BackgroundImageFix" result="effect1_dropShadow_560_1253"/>
<feBlend mode="normal" in="SourceGraphic" in2="effect1_dropShadow_560_1253" result="shape"/>
</filter>
<clipPath id="clip0_560_1253">
<rect x="34.0283" y="27.8418" width="206.49" height="134.567" rx="7.73371" fill="white"/>
</clipPath>
</defs>
</svg>
