<svg width="110" height="25" viewBox="0 0 110 25" fill="none" xmlns="http://www.w3.org/2000/svg">
<g clip-path="url(#clip0_156_3479)">
<path fill-rule="evenodd" clip-rule="evenodd" d="M32.1825 14.7326C31.7518 14.1484 31.0193 13.6705 30.1323 13.6705C28.4895 13.6705 27.3047 14.9243 27.3047 16.6227C27.3047 18.3217 28.4895 19.5753 30.1323 19.5753C30.8999 19.5753 31.6173 19.248 31.9925 18.9219C32.0177 18.8999 32.0306 18.8684 32.0306 18.835V17.9138C32.0306 17.8561 31.9838 17.8089 31.9259 17.8089H29.8129C29.7289 17.8089 29.6608 17.7407 29.6608 17.6568V16.2897C29.6608 16.2056 29.7289 16.1374 29.8129 16.1374H33.6014V14.1083L32.3782 14.7783C32.3131 14.8141 32.2266 14.7924 32.1825 14.7326ZM14.3981 15.6926H16.6548C17.301 15.6926 17.7051 15.3283 17.7051 14.7489C17.7051 14.1959 17.301 13.8052 16.6548 13.8052H14.3981C14.3206 13.8052 14.2582 13.868 14.2582 13.9453V15.5526C14.2582 15.6299 14.3206 15.6926 14.3981 15.6926ZM23.573 20.9867C23.573 21.0561 23.5169 21.112 23.4478 21.112H21.7864C21.717 21.112 21.6609 21.0561 21.6609 20.9867V12.2456C21.6609 12.1765 21.717 12.1203 21.7864 12.1203H23.4478C23.5169 12.1203 23.573 12.1765 23.573 12.2456V20.9867ZM33.1239 0.0584548L16.6468 12.1203H17.0722C18.7822 12.1203 19.6572 13.2119 19.6572 14.4117C19.6572 15.3452 19.1701 16.0346 18.5163 16.3394C18.4076 16.3902 18.4115 16.544 18.5226 16.5894C19.2847 16.9017 19.8325 17.7182 19.8325 18.6718C19.8325 20.0336 18.9437 21.112 17.2204 21.112H12.4861C12.4087 21.112 12.3459 21.0495 12.3459 20.9719V15.2685L0.123472 24.216C-0.110663 24.3876 0.0103072 24.7591 0.300875 24.7591H33.3013C33.467 24.7591 33.6015 24.6244 33.6015 24.4585V19.9332C32.7184 20.7576 31.5573 21.274 30.1321 21.274C27.4933 21.274 25.3389 19.4542 25.3389 16.6228C25.3389 13.7782 27.4933 11.9719 30.1321 11.9719C31.7914 11.9719 32.903 12.7245 33.6015 13.6439V0.300968C33.6015 0.0551261 33.3223 -0.0867036 33.1239 0.0584548ZM14.3981 19.4267H16.7355C17.449 19.4267 17.8798 19.0493 17.8798 18.4023C17.8798 17.8363 17.4763 17.3777 16.7355 17.3777H14.3981C14.3206 17.3777 14.2582 17.4405 14.2582 17.5178V19.2868C14.2582 19.364 14.3206 19.4267 14.3981 19.4267ZM43.1786 19.154L42.1487 18.6193C42.0823 18.5848 41.9986 18.61 41.9584 18.6732C41.5228 19.3569 40.7193 19.8646 39.8461 19.8646C38.1318 19.8646 36.859 18.4895 36.859 16.6154C36.859 14.7147 38.1318 13.3665 39.8461 13.3665C40.7187 13.3665 41.5219 13.8615 41.9578 14.5545C41.9983 14.6191 42.083 14.6441 42.1502 14.6077L43.1723 14.0503C43.25 14.0079 43.2773 13.9107 43.2296 13.8356C42.583 12.8168 41.5123 11.9645 39.8461 11.9645C37.2874 11.9645 35.3002 13.8387 35.3002 16.6154C35.3002 19.3791 37.2874 21.2665 39.8461 21.2665C41.5105 21.2665 42.5689 20.3916 43.2374 19.3722C43.2881 19.295 43.2602 19.1964 43.1786 19.154ZM48.5469 19.8646C46.7918 19.8646 45.6736 18.4626 45.6736 16.6155C45.6736 14.7554 46.7918 13.3666 48.5469 13.3666C50.2888 13.3666 51.4198 14.7554 51.4198 16.6155C51.4198 18.4626 50.2888 19.8646 48.5469 19.8646ZM47.3192 12.1217C45.3882 12.6384 44.1136 14.3785 44.1136 16.6155C44.1136 19.2984 45.9468 21.2666 48.5469 21.2666C50.761 21.2666 52.4323 19.8249 52.8682 17.7271C53.5781 14.3109 50.5826 11.249 47.3192 12.1217ZM63.7652 12.113H61.7942C61.7066 12.113 61.6279 12.1664 61.5958 12.2482L59.2121 18.418L56.8149 12.2476C56.7828 12.1664 56.7042 12.113 56.6165 12.113H54.6453C54.5871 12.113 54.5396 12.1605 54.5396 12.2188V20.9991C54.5396 21.0574 54.5871 21.1049 54.6453 21.1049H56.0096C56.0678 21.1049 56.1152 21.0574 56.1152 20.9991V14.1621L58.8567 21.0571C58.8681 21.0859 58.896 21.1049 58.927 21.1049H59.4973C59.5282 21.1049 59.5561 21.0859 59.5675 21.0571L62.2955 14.1621V20.9991C62.2955 21.0574 62.3426 21.1049 62.4012 21.1049H63.7652C63.8237 21.1049 63.8708 21.0574 63.8708 20.9991V12.2188C63.8708 12.1605 63.8237 12.113 63.7652 12.113ZM83.9121 12.113H78.0833C77.9936 12.113 77.9209 12.1857 77.9209 12.2756V20.9423C77.9209 21.0322 77.9936 21.1049 78.0833 21.1049H83.9121C84.0018 21.1049 84.0745 21.0322 84.0745 20.9423V19.879C84.0745 19.7892 84.0018 19.7164 83.9121 19.7164H79.6589C79.5692 19.7164 79.4965 19.6437 79.4965 19.5538V17.3713C79.4965 17.2814 79.5692 17.2086 79.6589 17.2086H83.8181C83.9076 17.2086 83.9805 17.1356 83.9805 17.0461V15.9827C83.9805 15.8929 83.9076 15.8202 83.8181 15.8202H79.6589C79.5692 15.8202 79.4965 15.7475 79.4965 15.6576V13.6641C79.4965 13.5742 79.5692 13.5014 79.6589 13.5014H83.9121C84.0018 13.5014 84.0745 13.4284 84.0745 13.3389V12.2756C84.0745 12.1857 84.0018 12.113 83.9121 12.113ZM90.0568 16.3594H88.0499C87.961 16.3594 87.889 16.2873 87.889 16.1984V13.6624C87.889 13.5734 87.961 13.5013 88.0499 13.5013H90.0568C90.9451 13.5013 91.5916 14.0543 91.5916 14.9172C91.5916 15.7932 90.9451 16.3594 90.0568 16.3594ZM91.293 17.5261C92.2982 17.2724 93.2072 16.4105 93.2072 14.9304C93.2072 13.2588 92.0359 12.1131 90.2586 12.1131H86.4743C86.3854 12.1131 86.3134 12.1853 86.3134 12.2742V20.9437C86.3134 21.0326 86.3854 21.105 86.4743 21.105H87.7278C87.8167 21.105 87.889 21.0326 87.889 20.9437V17.909C87.889 17.82 87.961 17.748 88.0499 17.748H89.3725C89.4295 17.748 89.482 17.778 89.5111 17.827L91.3968 21.0257C91.4256 21.0746 91.4785 21.105 91.5355 21.105H92.9841C93.1105 21.105 93.1883 20.9664 93.121 20.8591C92.7053 20.194 91.5637 18.368 91.1882 17.7672C91.1285 17.6722 91.1843 17.5535 91.293 17.5261ZM105.581 13.5013H109.842C109.929 13.5013 110 13.4304 110 13.3427V12.2716C110 12.1841 109.929 12.1129 109.842 12.1129H104.005C103.918 12.1129 103.846 12.1841 103.846 12.2716V20.9461C103.846 21.0339 103.918 21.1048 104.005 21.1048H109.842C109.929 21.1048 110 21.0339 110 20.9461V19.8749C110 19.7875 109.929 19.7166 109.842 19.7166H105.581C105.493 19.7166 105.422 19.6453 105.422 19.5579V17.3673C105.422 17.2796 105.493 17.2086 105.581 17.2086H109.748C109.835 17.2086 109.906 17.1377 109.906 17.0499V15.9788C109.906 15.8913 109.835 15.8201 109.748 15.8201H105.581C105.493 15.8201 105.422 15.7491 105.422 15.6614V13.66C105.422 13.5723 105.493 13.5013 105.581 13.5013ZM102.239 19.1167L101.209 18.582C101.143 18.5475 101.059 18.5727 101.019 18.6358C100.583 19.3196 99.7797 19.8271 98.9065 19.8271C97.1922 19.8271 95.9194 18.4522 95.9194 16.578C95.9194 14.6774 97.1922 13.3291 98.9065 13.3291C99.7791 13.3291 100.582 13.8241 101.018 14.5172C101.059 14.5818 101.143 14.6067 101.211 14.5704L102.233 14.0128C102.31 13.9704 102.338 13.8731 102.29 13.7983C101.643 12.7794 100.573 11.927 98.9065 11.927C96.3478 11.927 94.3606 13.8013 94.3606 16.578C94.3606 19.3418 96.3478 21.2292 98.9065 21.2292C100.571 21.2292 101.629 20.3543 102.298 19.3349C102.349 19.2577 102.321 19.1591 102.239 19.1167ZM75.3971 12.113H73.4261C73.3385 12.113 73.2598 12.1664 73.2277 12.2482L70.844 18.418L68.4469 12.2476C68.4147 12.1664 68.3361 12.113 68.2485 12.113H66.2772C66.219 12.113 66.1716 12.1605 66.1716 12.2188V20.9991C66.1716 21.0574 66.219 21.1049 66.2772 21.1049H67.6415C67.6997 21.1049 67.7472 21.0574 67.7472 20.9991V14.1621L70.4886 21.0571C70.5001 21.0859 70.528 21.1049 70.5589 21.1049H71.1292C71.1601 21.1049 71.188 21.0859 71.1995 21.0571L73.9274 14.1621V20.9991C73.9274 21.0574 73.9746 21.1049 74.0331 21.1049H75.3971C75.4556 21.1049 75.5027 21.0574 75.5027 20.9991V12.2188C75.5027 12.1605 75.4556 12.113 75.3971 12.113Z" fill="#34313F"/>
</g>
<defs>
<clipPath id="clip0_156_3479">
<rect width="110" height="25" fill="white"/>
</clipPath>
</defs>
</svg>
