<svg width="171" height="25" viewBox="0 0 171 25" fill="none" xmlns="http://www.w3.org/2000/svg">
<path fill-rule="evenodd" clip-rule="evenodd" d="M6.33548 13.2353L15.9028 3.436C16.5528 2.77022 17.4176 2.40412 18.3395 2.40412C19.2608 2.40412 20.1256 2.76987 20.775 3.43565L21.5204 4.19912L23.0115 2.67183L22.2661 1.90835C21.219 0.835802 19.8246 0.245117 18.3389 0.245117C16.8538 0.245465 15.4591 0.836149 14.412 1.90905L4.84469 11.708L6.33548 13.2353Z" fill="#191A15"/>
<path fill-rule="evenodd" clip-rule="evenodd" d="M19.1357 6.69099L17.6375 5.16595L8.02534 14.9508C6.6755 16.3248 4.47921 16.3251 3.12972 14.9514C1.77988 13.5774 1.77988 11.3414 3.12972 9.9674L11.4241 1.52469L9.92595 0L1.63187 8.44271C-0.543958 10.6575 -0.543958 14.2617 1.63187 16.4761C2.68398 17.5471 4.08497 18.1372 5.57701 18.1372C7.0694 18.1372 8.47107 17.5467 9.52318 16.4758L19.1357 6.69099Z" fill="#191A15"/>
<path fill-rule="evenodd" clip-rule="evenodd" d="M28.6459 8.52311C27.5941 7.45213 26.1931 6.8623 24.7004 6.8623C23.208 6.86265 21.8063 7.45247 20.7542 8.5238L11.1423 18.3084L12.6398 19.8335L22.2524 10.0485C23.6026 8.67447 25.7985 8.67481 27.148 10.0482C27.8008 10.7126 28.1602 11.5972 28.1602 12.5397C28.1602 13.4826 27.8008 14.3675 27.148 15.032L18.8539 23.4748L20.3521 24.9996L28.6459 16.557C30.8221 14.3422 30.8221 10.738 28.6459 8.52311Z" fill="#191A15"/>
<path fill-rule="evenodd" clip-rule="evenodd" d="M23.9429 11.7646L14.3758 21.564C13.032 22.9397 10.8465 22.9404 9.50334 21.5643L8.75796 20.8008L7.26685 22.3281L8.01224 23.0916C9.05937 24.1642 10.4537 24.7548 11.9397 24.7548C13.4247 24.7545 14.8191 24.1638 15.8666 23.0909L25.4337 13.2919L23.9429 11.7646Z" fill="#191A15"/>
<path fill-rule="evenodd" clip-rule="evenodd" d="M39.1134 15.0521C39.2368 15.6773 39.526 16.1668 39.9803 16.5195C40.4343 16.873 41.0317 17.0493 41.7725 17.0493C42.5014 17.0493 43.0649 16.8758 43.4633 16.5283C43.8616 16.1812 44.0606 15.7239 44.0606 15.1563C44.0606 14.8785 44.0074 14.6441 43.901 14.453C43.7942 14.262 43.6457 14.1 43.4551 13.9666C43.2639 13.834 43.0286 13.7207 42.7482 13.6283C42.4678 13.5356 42.1536 13.4372 41.8057 13.333L40.8974 13.0726C40.3587 12.9222 39.8762 12.7399 39.4501 12.5254C39.0236 12.3113 38.6591 12.0593 38.3563 11.7699C38.0536 11.4806 37.8234 11.1478 37.6664 10.7713C37.5094 10.3952 37.4308 9.9578 37.4308 9.46023C37.4308 8.93923 37.5318 8.45881 37.7339 8.01863C37.9356 7.57915 38.2217 7.2023 38.592 6.88984C38.9622 6.57737 39.4108 6.33139 39.9383 6.15154C40.4652 5.97274 41.0595 5.88281 41.7216 5.88281C42.9669 5.88281 43.9538 6.18653 44.6835 6.79431C45.4124 7.40245 45.8386 8.21562 45.9623 9.23454L43.943 9.4081C43.8193 8.88709 43.5728 8.4819 43.2025 8.19253C42.8323 7.90316 42.3163 7.7583 41.6545 7.7583C41.0375 7.7583 40.555 7.90596 40.2075 8.20128C39.8593 8.4966 39.6854 8.87589 39.6854 9.33882C39.6854 9.60509 39.7362 9.82763 39.8373 10.0071C39.9383 10.187 40.0837 10.343 40.2746 10.476C40.4652 10.6093 40.6981 10.7279 40.9727 10.8319C41.2477 10.9361 41.5589 11.0467 41.9067 11.1622L42.7652 11.44C43.3032 11.6135 43.7887 11.7958 44.2203 11.9869C44.6523 12.1779 45.0198 12.4068 45.3225 12.6731C45.6256 12.9393 45.8586 13.2577 46.021 13.6283C46.1837 13.9988 46.2651 14.4562 46.2651 15.0003C46.2651 15.5794 46.1528 16.1091 45.9287 16.5892C45.704 17.0699 45.3904 17.4779 44.9862 17.8135C44.5824 18.1494 44.103 18.4101 43.5473 18.5948C42.992 18.7799 42.378 18.873 41.705 18.873C40.4597 18.873 39.4219 18.5721 38.592 17.9699C37.7617 17.3677 37.2514 16.459 37.0605 15.2431L39.1134 15.0521Z" fill="#191A15"/>
<path fill-rule="evenodd" clip-rule="evenodd" d="M54.9514 7.99477C54.3461 7.99477 53.8048 8.11006 53.3283 8.33993C52.8515 8.57015 52.4478 8.88919 52.1174 9.29739C51.7862 9.70593 51.5337 10.1894 51.3599 10.7466C51.1864 11.3049 51.0996 11.9117 51.0996 12.5672C51.0996 13.223 51.1891 13.8325 51.3687 14.3964C51.5476 14.9599 51.8032 15.4486 52.134 15.863C52.4644 16.2768 52.8684 16.6018 53.3453 16.8379C53.8214 17.0733 54.3627 17.1911 54.9683 17.1911C55.574 17.1911 56.1149 17.0793 56.5917 16.855C57.0679 16.6307 57.4719 16.3172 57.8027 15.9142C58.1335 15.512 58.3887 15.0257 58.568 14.4566C58.7473 13.8872 58.8371 13.263 58.8371 12.5846C58.8371 11.9172 58.7473 11.3018 58.568 10.7383C58.3887 10.1751 58.1335 9.69165 57.8027 9.28903C57.4719 8.88675 57.0652 8.57015 56.5829 8.33993C56.101 8.11006 55.557 7.99477 54.9514 7.99477ZM54.9683 6.12793C55.8766 6.12793 56.7066 6.2864 57.458 6.60335C58.2091 6.92029 58.8483 7.36367 59.3756 7.93417C59.9023 8.50502 60.3114 9.18767 60.6035 9.98282C60.895 10.778 61.0407 11.648 61.0407 12.5929C61.0407 13.573 60.8865 14.4573 60.5784 15.2466C60.2693 16.0361 59.8298 16.7188 59.2577 17.2949L60.8726 19.2484V19.8534H58.8205L57.6932 18.4362C57.3008 18.6205 56.8798 18.7643 56.4318 18.8681C55.9831 18.9719 55.5008 19.0238 54.9853 19.0238C54.0543 19.0238 53.2161 18.865 52.4705 18.5484C51.7246 18.2314 51.0908 17.7877 50.5695 17.2172C50.0479 16.6467 49.6443 15.9672 49.3586 15.1772C49.0725 14.388 48.9295 13.5267 48.9295 12.5929C48.9295 11.648 49.0725 10.7811 49.3586 9.99118C49.6443 9.2023 50.0506 8.52209 50.578 7.95159C51.1047 7.38108 51.7412 6.93457 52.4871 6.61171C53.2331 6.28954 54.06 6.12793 54.9683 6.12793Z" fill="#191A15"/>
<path fill-rule="evenodd" clip-rule="evenodd" d="M69.2762 17.0845C70.1367 17.0845 70.8071 16.8099 71.2877 16.2599C71.768 15.7099 72.0085 14.8678 72.0085 13.7332V6.12793H74.1207V13.7853C74.1207 14.6883 74.0089 15.4608 73.7853 16.1035C73.5614 16.7459 73.2432 17.2728 72.8298 17.6838C72.4165 18.0949 71.9078 18.3958 71.3046 18.5868C70.7011 18.7779 70.0249 18.873 69.2762 18.873C68.5159 18.873 67.8371 18.7779 67.2396 18.5868C66.6415 18.3958 66.1359 18.0949 65.7225 17.6838C65.3091 17.2728 64.9907 16.7459 64.7667 16.1035C64.5432 15.4608 64.4317 14.6883 64.4317 13.7853V6.12793H66.5439V13.7332C66.5439 14.8678 66.784 15.7099 67.2646 16.2599C67.7452 16.8099 68.4156 17.0845 69.2762 17.0845Z" fill="#191A15"/>
<path fill-rule="evenodd" clip-rule="evenodd" d="M80.1719 13.2846H84.2135L83.5484 11.3389C83.2865 10.5768 83.0766 9.95645 82.9175 9.47878C82.7581 9.00077 82.6158 8.57985 82.4911 8.21567H81.9627C81.8943 8.40894 81.8259 8.60255 81.7579 8.79581C81.6895 8.98942 81.6129 9.20573 81.5277 9.44439C81.4421 9.6834 81.3487 9.95645 81.2463 10.2639C81.1439 10.5706 81.0188 10.9293 80.8711 11.3389L80.1719 13.2846ZM76.3007 18.0296L80.6495 6.37207H83.8727L88.1696 18.0296V18.627H86.0552L84.8275 15.1279H79.5239L78.2962 18.627H76.3007V18.0296Z" fill="#191A15"/>
<path fill-rule="evenodd" clip-rule="evenodd" d="M92.9282 11.9704H94.7691C95.58 11.9704 96.2188 11.8208 96.686 11.5223C97.1532 11.2235 97.3873 10.7358 97.3873 10.0587C97.3873 9.37088 97.1505 8.89183 96.6775 8.62118C96.2048 8.35087 95.5688 8.21538 94.7691 8.21538H92.9282V11.9704ZM100.039 18.627H97.9947L94.2961 13.8137H92.9282V18.627H90.834V6.37207H94.7691C95.3881 6.37207 95.9768 6.41471 96.5339 6.5C97.0913 6.58529 97.5952 6.78166 98.0458 7.08876C99.0023 7.72566 99.4815 8.68721 99.4815 9.97237C99.4815 10.5302 99.3998 11.0164 99.2361 11.4319C99.0728 11.847 98.856 12.1995 98.5862 12.4897C98.3156 12.78 98.0032 13.0159 97.649 13.1975C97.2941 13.3797 96.9252 13.5163 96.5424 13.6071L100.039 18.0293V18.627Z" fill="#191A15"/>
<path fill-rule="evenodd" clip-rule="evenodd" d="M102.703 6.37207H110.578V8.24937H104.786V11.4582H110.171V13.3015H104.786V16.7493H110.696V18.627H102.703V6.37207Z" fill="#191A15"/>
<path fill-rule="evenodd" clip-rule="evenodd" d="M115.414 15.0521C115.537 15.6773 115.827 16.1668 116.281 16.5195C116.735 16.873 117.333 17.0493 118.073 17.0493C118.802 17.0493 119.365 16.8758 119.764 16.5283C120.162 16.1812 120.361 15.7239 120.361 15.1563C120.361 14.8785 120.308 14.6441 120.201 14.453C120.095 14.262 119.946 14.1 119.756 13.9666C119.565 13.834 119.329 13.7207 119.049 13.6283C118.768 13.5356 118.454 13.4372 118.106 13.333L117.198 13.0726C116.66 12.9222 116.177 12.7399 115.751 12.5254C115.324 12.3113 114.96 12.0593 114.657 11.7699C114.354 11.4806 114.124 11.1478 113.967 10.7713C113.81 10.3952 113.731 9.9578 113.731 9.46023C113.731 8.93923 113.832 8.45881 114.035 8.01863C114.236 7.57915 114.522 7.2023 114.893 6.88984C115.263 6.57737 115.711 6.33139 116.239 6.15154C116.766 5.97274 117.36 5.88281 118.022 5.88281C119.267 5.88281 120.254 6.18653 120.984 6.79431C121.713 7.40245 122.139 8.21562 122.263 9.23454L120.243 9.4081C120.12 8.88709 119.873 8.4819 119.503 8.19253C119.133 7.90316 118.617 7.7583 117.955 7.7583C117.338 7.7583 116.856 7.90596 116.508 8.20128C116.16 8.4966 115.986 8.87589 115.986 9.33882C115.986 9.60509 116.037 9.82763 116.138 10.0071C116.239 10.187 116.384 10.343 116.575 10.476C116.766 10.6093 116.999 10.7279 117.274 10.8319C117.549 10.9361 117.86 11.0467 118.207 11.1622L119.066 11.44C119.604 11.6135 120.089 11.7958 120.521 11.9869C120.953 12.1779 121.32 12.4068 121.623 12.6731C121.926 12.9393 122.159 13.2577 122.322 13.6283C122.484 13.9988 122.566 14.4562 122.566 15.0003C122.566 15.5794 122.454 16.1091 122.229 16.5892C122.004 17.0699 121.691 17.4779 121.287 17.8135C120.883 18.1494 120.403 18.4101 119.848 18.5948C119.292 18.7799 118.678 18.873 118.006 18.873C116.761 18.873 115.723 18.5721 114.893 17.9699C114.062 17.3677 113.552 16.459 113.361 15.2431L115.414 15.0521Z" fill="#191A15"/>
<path fill-rule="evenodd" clip-rule="evenodd" d="M127.861 12.0728H129.921C130.299 12.0728 130.645 12.0418 130.96 11.9796C131.274 11.9177 131.549 11.8135 131.784 11.6666C132.019 11.5201 132.202 11.3227 132.334 11.0744C132.465 10.8265 132.531 10.5218 132.531 10.1607C132.531 9.78863 132.465 9.47603 132.334 9.22224C132.202 8.96845 132.021 8.7683 131.793 8.62146C131.564 8.47462 131.292 8.37042 130.977 8.30852C130.662 8.24662 130.322 8.21533 129.956 8.21533H127.861V12.0728ZM125.715 6.37207H130.213C131.048 6.37207 131.75 6.4687 132.316 6.66231C132.883 6.85558 133.341 7.12278 133.69 7.46461C134.039 7.80575 134.291 8.20673 134.445 8.66789C134.599 9.12836 134.677 9.62631 134.677 10.1611C134.677 10.7986 134.571 11.353 134.359 11.8251C134.148 12.2973 133.841 12.6869 133.441 12.9944C133.04 13.3015 132.554 13.5319 131.981 13.6856C131.409 13.8393 130.762 13.916 130.041 13.916H127.861V18.627H125.715V6.37207Z" fill="#191A15"/>
<path fill-rule="evenodd" clip-rule="evenodd" d="M139.032 13.2846H143.074L142.409 11.3389C142.147 10.5768 141.937 9.95645 141.778 9.47878C141.618 9.00077 141.476 8.57985 141.351 8.21567H140.823C140.755 8.40894 140.686 8.60255 140.618 8.79581C140.55 8.98942 140.473 9.20573 140.388 9.44439C140.303 9.6834 140.209 9.95645 140.107 10.2639C140.004 10.5706 139.879 10.9293 139.731 11.3389L139.032 13.2846ZM135.161 18.0296L139.51 6.37207H142.733L147.03 18.0296V18.627H144.916L143.688 15.1279H138.384L137.156 18.627H135.161V18.0296Z" fill="#191A15"/>
<path fill-rule="evenodd" clip-rule="evenodd" d="M159.868 15.3878C159.675 15.8663 159.423 16.3165 159.112 16.7389C158.8 17.1612 158.423 17.5313 157.982 17.8472C157.54 18.1632 157.027 18.4131 156.444 18.597C155.86 18.7808 155.212 18.873 154.498 18.873C153.592 18.873 152.768 18.7133 152.026 18.3942C151.284 18.0758 150.651 17.6342 150.126 17.0707C149.602 16.5065 149.197 15.8349 148.911 15.0546C148.626 14.2746 148.483 13.4288 148.483 12.5173C148.483 11.6065 148.626 10.7608 148.911 9.98044C149.197 9.20044 149.604 8.52542 150.134 7.95574C150.665 7.38674 151.301 6.93926 152.043 6.615C152.785 6.29006 153.615 6.12793 154.532 6.12793C155.869 6.12793 156.988 6.44151 157.888 7.06765C158.789 7.69379 159.426 8.52542 159.8 9.56187L157.642 9.9887C157.347 9.36257 156.937 8.86964 156.41 8.51097C155.883 8.15229 155.246 7.97295 154.498 7.97295C153.898 7.97295 153.363 8.0893 152.893 8.32199C152.422 8.55468 152.026 8.87515 151.703 9.28374C151.38 9.69199 151.134 10.1742 150.964 10.7305C150.794 11.2864 150.709 11.8819 150.709 12.5173C150.709 13.1641 150.797 13.7627 150.973 14.3131C151.148 14.8639 151.403 15.3399 151.737 15.743C152.071 16.1458 152.476 16.4604 152.952 16.6872C153.428 16.9144 153.972 17.028 154.583 17.028C155.376 17.028 156.03 16.8342 156.546 16.447C157.061 16.0597 157.461 15.5871 157.744 15.0288L159.868 15.3878Z" fill="#191A15"/>
<mask id="mask0_156_3447" style="mask-type:luminance" maskUnits="userSpaceOnUse" x="162" y="6" width="9" height="13">
<path d="M162.639 6.22461H170.678V18.5982H162.639V6.22461Z" fill="white"/>
</mask>
<g mask="url(#mask0_156_3447)">
<path fill-rule="evenodd" clip-rule="evenodd" d="M162.639 6.22461H170.559V8.12009H164.734V11.36H170.15V13.2211H164.734V16.7024H170.678V18.5982H162.639V6.22461Z" fill="#191A15"/>
</g>
</svg>
