<svg width="42" height="17" viewBox="0 0 42 17" fill="none" xmlns="http://www.w3.org/2000/svg">
<path d="M23.8767 0.311074C23.0723 0.714107 22.7234 1.46521 22.7234 3.50393C23.0275 3.22378 23.383 3.00515 23.7702 2.86013C24.1445 2.71789 24.4969 2.52378 24.8171 2.28349C25.515 1.76007 25.6223 1.13023 25.6223 0.0301724C25.0266 -0.00941369 24.4298 0.0866302 23.8767 0.311074Z" fill="#FBBD71"/>
<path d="M18.9539 0.781882C18.5061 1.20125 18.201 1.7504 18.0815 2.35214L15.8282 10.9886L13.9779 3.9224C13.798 3.08325 13.4411 2.29214 12.9311 1.60191C12.3589 1.03922 11.5875 0.725622 10.7851 0.72954C9.98544 0.73997 9.21914 1.05147 8.63904 1.60191C8.12809 2.29192 7.7703 3.08304 7.58958 3.9224L5.84485 10.9886L3.59502 2.35214C3.46128 1.75572 3.15839 1.21052 2.72265 0.781882C2.34123 0.482472 1.90416 0.261753 1.4368 0.13252C0.969432 0.00328655 0.481062 -0.0318896 0 0.0290304L4.29291 16.1931C4.99904 16.2626 5.71192 16.1851 6.38659 15.9654C7.31217 15.4961 7.78237 15.1602 8.30579 12.947C8.82921 10.9755 10.225 5.23356 10.3314 4.83402C10.3855 4.65955 10.5059 4.13613 10.8548 4.13613C11.2038 4.13613 11.3242 4.60546 11.3783 4.83402C11.4987 5.23618 12.8805 10.9781 13.4039 12.947C13.9805 15.1471 14.3836 15.4961 15.3231 15.9654C15.9978 16.1851 16.7107 16.2626 17.4168 16.1931L21.6774 0.0290304C20.706 -0.0863094 19.7281 0.184002 18.9539 0.781882Z" fill="#191A15"/>
<path d="M25.6073 2.63086C25.3639 2.93148 25.0684 3.18589 24.735 3.38197C24.3328 3.60965 23.9838 3.73091 23.5817 3.9586C22.8838 4.30755 22.7093 4.65649 22.7093 5.17991V6.22675V16.1386C23.3182 16.2048 23.9341 16.1268 24.5073 15.9109C25.4328 15.4416 25.6073 14.9853 25.6073 13.0138V3.27466V2.63086Z" fill="#191A15"/>
<path d="M36.2714 8.14454L41.7176 0.0821332C41.7176 0.0821332 39.4643 -0.320027 38.297 0.725939C37.7222 1.27897 37.2177 1.9007 36.7948 2.5771L34.8233 5.47335C34.7029 5.64783 34.5956 5.76821 34.4211 5.76821C34.3349 5.75639 34.2529 5.72324 34.1827 5.67175C34.1124 5.62027 34.0562 5.55207 34.019 5.47335L32.0474 2.57623C31.5905 1.92466 31.0879 1.30635 30.5435 0.725939C29.3902 -0.3209 27.1229 0.0821332 27.1229 0.0821332L32.3946 8.13058L27.0025 16.179C27.0025 16.179 29.3771 16.4739 30.5435 15.4279C31.0961 14.9079 31.5827 14.3219 31.9925 13.6832L33.964 10.7861C34.0844 10.6116 34.1917 10.4912 34.3662 10.4912C34.4524 10.503 34.5344 10.5362 34.6046 10.5877C34.6748 10.6391 34.7311 10.7073 34.7683 10.7861L36.7399 13.6832C37.1686 14.3078 37.6536 14.8918 38.1889 15.4279C39.3421 16.4748 41.6635 16.179 41.6635 16.179L36.2714 8.14454Z" fill="#191A15"/>
</svg>
