<svg width="124" height="25" viewBox="0 0 124 25" fill="none" xmlns="http://www.w3.org/2000/svg">
<g clip-path="url(#clip0_156_3483)">
<path fill-rule="evenodd" clip-rule="evenodd" d="M3.80548 0.0615234C15.1793 0.0615513 26.5464 0.0615513 37.9065 0.0615234C39.6279 0.18299 40.8185 1.03685 41.4779 2.6231C41.5946 2.95034 41.6685 3.28694 41.6996 3.63295C41.7161 8.16497 41.7161 12.697 41.6996 17.229C41.5188 18.7206 40.7594 19.8003 39.4212 20.4679C38.9959 20.6554 38.5567 20.758 38.1035 20.7758C33.9631 20.7963 29.8212 20.8086 25.6774 20.8128C26.2232 22.1383 26.7693 23.4642 27.3153 24.7906C27.3318 24.8233 27.3318 24.8563 27.3153 24.8891C24.8902 23.5226 22.4558 22.172 20.0124 20.8374C19.8421 20.8328 19.6738 20.8205 19.5074 20.8004C14.2827 20.801 9.00355 20.801 3.67001 20.8004C2.21281 20.6427 1.13727 19.9202 0.443406 18.633C0.193805 18.1231 0.0583374 17.5853 0.0370024 17.0197C0.0341652 12.6576 0.0382704 8.25283 0.0493177 3.80537C0.216556 1.92225 1.20588 0.711245 3.0173 0.172361C3.28139 0.118879 3.54412 0.081933 3.80548 0.0615234Z" fill="#9B5D8F"/>
<path fill-rule="evenodd" clip-rule="evenodd" d="M2.00728 3.80589C2.04192 3.79424 2.05834 3.76961 2.05654 3.732C2.21542 3.44629 2.45351 3.25335 2.77083 3.15318C3.27043 2.99988 3.74662 3.04914 4.1994 3.30097C4.39925 3.4584 4.53472 3.65956 4.6058 3.90441C4.89871 5.63715 5.19428 7.36951 5.4925 9.10146C5.75578 10.5096 6.06366 11.9053 6.41615 13.2887C6.43718 13.253 6.46181 13.2202 6.49004 13.1901C6.6558 12.869 6.82002 12.5488 6.98265 12.2295C7.01728 12.2179 7.03371 12.1933 7.03191 12.1556C7.36745 11.5256 7.69585 10.8934 8.01713 10.2591C8.05176 10.2474 8.06819 10.2228 8.0664 10.1852C8.22053 9.90158 8.36832 9.61424 8.50975 9.32313C8.54438 9.31148 8.5608 9.28685 8.55901 9.24924C8.61169 9.11102 8.67738 8.97964 8.75605 8.85515C8.79068 8.8435 8.80711 8.81887 8.80531 8.78126C9.24588 7.91491 9.69334 7.05284 10.1477 6.19505C10.3291 5.88227 10.5631 5.61545 10.8496 5.39456C11.4028 5.09872 11.9078 5.1603 12.3644 5.57929C12.4303 5.66976 12.496 5.76005 12.5615 5.85023C12.6061 5.97616 12.6554 6.09932 12.7093 6.21968C12.8645 6.87269 13.0041 7.52951 13.128 8.19013C13.4447 9.62978 13.8716 11.0337 14.4088 12.402C14.5631 11.0832 14.752 9.76954 14.9753 8.46106C15.2036 7.20289 15.5238 5.97136 15.9359 4.76648C16.1585 4.10806 16.4458 3.48409 16.7979 2.89456C17.2295 2.38898 17.7673 2.23709 18.4112 2.4389C19.3027 2.83087 19.5859 3.49178 19.261 4.42166C18.9367 5.06207 18.674 5.7271 18.4728 6.41673C17.9945 8.17895 17.6415 9.96877 17.4137 11.7862C17.1418 13.6119 17.0392 15.4469 17.1058 17.2911C17.1253 17.7911 16.9693 18.2263 16.6378 18.5965C16.3981 18.7941 16.123 18.8885 15.8127 18.8798C15.6202 18.8512 15.4355 18.7978 15.2585 18.7197C15.0948 18.6055 14.9306 18.4905 14.7659 18.3749C14.4694 18.0722 14.1861 17.7561 13.9161 17.4266C13.1125 16.3574 12.4475 15.1998 11.9211 13.9537C11.5178 12.9903 11.173 12.0051 10.8866 10.998C10.0049 12.704 9.1428 14.4199 8.30039 16.1458C7.99869 16.7249 7.65386 17.275 7.2659 17.796C7.01482 18.1128 6.73157 18.396 6.41615 18.6458C6.26866 18.7319 6.11268 18.7975 5.94817 18.8428C5.74058 18.8833 5.55174 18.8422 5.38167 18.7197C5.08967 18.4773 4.87208 18.1777 4.72896 17.8207C4.37078 16.8692 4.06699 15.9004 3.81763 14.9143C3.30199 12.8041 2.85864 10.6777 2.48758 8.53496C2.27675 7.26178 2.06329 5.98922 1.84718 4.71722C1.81835 4.39774 1.87172 4.09397 2.00728 3.80589Z" fill="#FEFEFE"/>
<path fill-rule="evenodd" clip-rule="evenodd" d="M2.05647 3.73145C2.05827 3.76906 2.04185 3.79369 2.00721 3.80534C2.00542 3.76773 2.02184 3.7431 2.05647 3.73145Z" fill="#CCACC6"/>
<path fill-rule="evenodd" clip-rule="evenodd" d="M24.101 4.19927C26.1023 4.14967 27.5185 5.01996 28.3498 6.81011C28.8264 7.99607 28.9907 9.2276 28.8424 10.5047C28.67 12.3841 27.9885 14.0508 26.7981 15.5047C25.5821 16.8445 24.0919 17.292 22.3276 16.8471C21.056 16.446 20.157 15.629 19.6306 14.3963C19.3238 13.6641 19.1514 12.9005 19.1134 12.1057C18.9789 9.83141 19.5865 7.79531 20.936 5.9973C21.0597 5.88994 21.1664 5.76678 21.2562 5.62784C22.0182 4.78903 22.9665 4.31284 24.101 4.19927Z" fill="#FEFEFE"/>
<path fill-rule="evenodd" clip-rule="evenodd" d="M32.7216 4.93814C32.7592 4.93994 32.7839 4.92351 32.7954 4.88888C33.5977 4.35576 34.4844 4.12999 35.4555 4.21154C36.9765 4.35534 38.1014 5.09014 38.8299 6.41598C39.1398 7.00484 39.3491 7.62883 39.458 8.2879C39.8206 10.9435 39.1802 13.3245 37.5368 15.4308C36.2972 16.8358 34.7659 17.2996 32.9432 16.8224C31.945 16.5216 31.1772 15.9264 30.6403 15.0367C30.2154 14.3158 29.9528 13.5358 29.8521 12.6968C29.5353 10.1782 30.143 7.92036 31.6748 5.92337C31.9265 5.64709 32.1851 5.38024 32.4506 5.12287C32.5447 5.06548 32.6351 5.00391 32.7216 4.93814Z" fill="#FEFEFE"/>
<path opacity="0.995" fill-rule="evenodd" clip-rule="evenodd" d="M57.5747 4.42106C60.6643 4.40308 62.4419 5.92197 62.9072 8.97771C63.0924 10.3287 63.0269 11.667 62.7101 12.9925C61.9059 15.6661 60.1037 16.8771 57.3037 16.6255C55.5833 16.4825 54.3313 15.6492 53.5476 14.1255C53.0259 12.9338 52.7838 11.6859 52.821 10.3816C52.7988 9.27411 52.9919 8.2068 53.3998 7.17968C54.2397 5.43135 55.6313 4.5118 57.5747 4.42106ZM57.821 7.08115C58.418 7.09143 58.8653 7.35416 59.1633 7.86933C59.4227 8.40583 59.5705 8.97234 59.6067 9.56884C59.6995 10.6482 59.6257 11.7155 59.385 12.7708C59.0434 13.7648 58.3579 14.1465 57.3284 13.9161C56.8515 13.7058 56.5436 13.3486 56.4047 12.8447C56.2949 12.4247 56.2291 11.9978 56.2077 11.5639C56.1518 10.7914 56.1601 10.0196 56.2323 9.24864C56.2798 8.67147 56.4523 8.13781 56.7495 7.64766C57.0247 7.29879 57.3818 7.10995 57.821 7.08115Z" fill="#191A15"/>
<path opacity="0.994" fill-rule="evenodd" clip-rule="evenodd" d="M49.8396 4.44551C50.627 4.41157 51.4029 4.48546 52.1672 4.66719C52.1876 5.59504 52.1837 6.5228 52.1549 7.45044C51.4958 7.2513 50.8224 7.1733 50.1352 7.21645C49.3696 7.32615 48.7581 7.6915 48.3002 8.31251C47.794 9.07273 47.5805 9.91017 47.6598 10.8248C47.6898 11.6214 47.9527 12.3274 48.448 12.943C49.1366 13.6571 49.9783 13.9568 50.9726 13.8421C51.3741 13.8004 51.7682 13.7224 52.1549 13.6081C52.1837 14.5357 52.1876 15.4635 52.1672 16.3913C50.7694 16.8083 49.3778 16.7631 47.9923 16.2559C46.0935 15.4653 44.9155 14.0655 44.4578 12.0563C44.211 10.831 44.2519 9.61591 44.581 8.41103C45.2423 6.5263 46.5273 5.28246 48.4357 4.6795C48.9009 4.56367 49.3689 4.48566 49.8396 4.44551Z" fill="#191A15"/>
<path opacity="0.993" fill-rule="evenodd" clip-rule="evenodd" d="M113.412 4.44571C114.199 4.42039 114.979 4.48606 115.751 4.64276C115.782 5.57865 115.782 6.51461 115.751 7.45064C115.027 7.22956 114.288 7.15975 113.535 7.24128C112.869 7.38133 112.331 7.72204 111.921 8.26345C111.369 9.07249 111.147 9.96739 111.256 10.9482C111.313 11.7788 111.621 12.4972 112.18 13.1034C112.863 13.7004 113.66 13.9467 114.569 13.8423C114.971 13.8006 115.365 13.7226 115.751 13.6083C115.76 13.9983 115.768 14.3883 115.776 14.7782C115.781 15.3251 115.764 15.871 115.727 16.4162C114.028 16.8649 112.394 16.6966 110.825 15.9112C109.173 14.9218 108.217 13.4645 107.956 11.5393C107.778 10.3241 107.901 9.13367 108.325 7.96788C109.337 5.81207 111.032 4.638 113.412 4.44571Z" fill="#191A15"/>
<path opacity="0.994" fill-rule="evenodd" clip-rule="evenodd" d="M64.7415 4.74133C66.061 4.73318 67.3787 4.7414 68.6947 4.76596C69.1672 6.86125 69.6063 8.96305 70.0125 11.0714C70.4218 8.9501 70.8817 6.84007 71.3918 4.74133C72.7524 4.73318 74.111 4.74138 75.4681 4.76596C75.9952 8.63239 76.5167 12.4994 77.0322 16.3669C75.9896 16.3669 74.9467 16.3669 73.9041 16.3669C73.6445 13.7383 73.3694 11.111 73.079 8.48517C72.4428 11.1125 71.8063 13.7398 71.1701 16.3669C70.4556 16.3751 69.7413 16.3669 69.0273 16.3423C68.358 13.7149 67.6891 11.0877 67.0199 8.46054C66.7556 11.0794 66.493 13.6985 66.2317 16.3177C65.2396 16.3667 64.242 16.3832 63.2391 16.3669C63.728 12.4892 64.2287 8.61399 64.7415 4.74133Z" fill="#191A15"/>
<path opacity="0.994" fill-rule="evenodd" clip-rule="evenodd" d="M78.9042 4.74133C80.2318 4.73317 81.5579 4.7414 82.8821 4.76596C83.3523 6.86862 83.7875 8.97862 84.1875 11.096C84.5995 8.96623 85.0633 6.848 85.5791 4.74133C86.9338 4.74133 88.2885 4.74133 89.6431 4.74133C90.1604 8.61652 90.6776 12.4917 91.1949 16.3669C90.1545 16.3751 89.1158 16.3669 88.0791 16.3423C87.8072 13.7305 87.5281 11.1197 87.2417 8.5098C86.6057 11.1273 85.9776 13.7463 85.3574 16.3669C84.6429 16.3751 83.9286 16.3669 83.2146 16.3423C82.5377 13.7169 81.8685 11.0897 81.2072 8.46054C80.937 11.0959 80.6702 13.7314 80.4067 16.3669C79.4133 16.3669 78.4197 16.3669 77.4264 16.3669C77.9151 12.4912 78.4077 8.61598 78.9042 4.74133Z" fill="#191A15"/>
<path opacity="0.993" fill-rule="evenodd" clip-rule="evenodd" d="M99.347 4.74086C100.796 4.73455 102.241 4.74687 103.682 4.77781C104.73 4.82874 105.682 5.14894 106.539 5.7384C107.556 6.58744 107.937 7.66707 107.684 8.97731C107.509 9.67852 107.143 10.2573 106.588 10.7138C106.361 10.8724 106.131 11.0243 105.899 11.1694C106.721 12.9013 107.55 14.6295 108.386 16.3542C107.278 16.3706 106.17 16.3706 105.061 16.3542C104.214 14.5979 103.364 12.845 102.512 11.0955C102.508 11.7008 102.496 12.3042 102.475 12.9059C102.493 14.0065 102.498 15.1518 102.487 16.3418C101.434 16.3664 100.379 16.3746 99.3224 16.3665C99.3143 12.4896 99.3224 8.61433 99.347 4.74086ZM102.475 7.00687C102.913 7.00948 103.34 7.07926 103.756 7.21623C104.15 7.38051 104.392 7.67199 104.482 8.09061C104.577 8.47788 104.519 8.83911 104.31 9.17436C104.044 9.42864 103.728 9.58874 103.362 9.65465C103.068 9.70337 102.773 9.73212 102.475 9.74086C102.475 8.82953 102.475 7.9182 102.475 7.00687Z" fill="#191A15"/>
<path opacity="0.995" fill-rule="evenodd" clip-rule="evenodd" d="M116.638 4.74121C118.704 4.74683 120.822 4.74683 122.992 4.74121C122.992 5.57865 122.992 6.41609 122.992 7.25353C121.917 7.25353 120.842 7.25353 119.766 7.25353C119.766 7.95138 119.766 8.64927 119.766 9.34712C120.694 9.34712 121.621 9.34712 122.549 9.34712C122.557 10.1576 122.549 10.9663 122.525 11.7732C121.606 11.7852 120.686 11.7893 119.766 11.7855C119.766 12.4834 119.766 13.1813 119.766 13.8791C120.842 13.8791 121.917 13.8791 122.992 13.8791C122.992 14.7084 122.992 15.5376 122.992 16.3668C120.874 16.3668 118.756 16.3668 116.638 16.3668C116.638 12.4916 116.638 8.61641 116.638 4.74121Z" fill="#191A15"/>
<path opacity="0.993" fill-rule="evenodd" clip-rule="evenodd" d="M92.7464 4.76562C94.6429 4.76562 96.5395 4.76562 98.436 4.76562C98.436 5.59486 98.436 6.42407 98.436 7.25331C97.3688 7.25331 96.3013 7.25331 95.234 7.25331C95.234 7.95939 95.234 8.66545 95.234 9.37154C96.1619 9.37154 97.0895 9.37154 98.0173 9.37154C98.0173 10.1761 98.0173 10.9807 98.0173 11.7853C97.0895 11.7853 96.1619 11.7853 95.234 11.7853C95.234 12.4914 95.234 13.1975 95.234 13.9036C96.3097 13.9036 97.385 13.9036 98.4606 13.9036C98.4606 14.7328 98.4606 15.562 98.4606 16.3912C96.3343 16.3912 94.2077 16.3912 92.0813 16.3912C92.0882 12.5188 92.0799 8.65183 92.0567 4.79026C92.2909 4.79831 92.521 4.79011 92.7464 4.76562Z" fill="#191A15"/>
<path fill-rule="evenodd" clip-rule="evenodd" d="M32.795 4.8888C32.7834 4.92344 32.7588 4.93986 32.7211 4.93807C32.7326 4.90344 32.7573 4.88701 32.795 4.8888Z" fill="#CCACC6"/>
<path fill-rule="evenodd" clip-rule="evenodd" d="M24.3231 7.05701C24.814 7.02124 25.1876 7.21006 25.4438 7.62351C25.983 8.57664 26.1554 9.59469 25.961 10.6777C25.8431 11.5164 25.5556 12.2881 25.099 12.993C24.8285 13.3374 24.5125 13.6288 24.1507 13.8674C24.0139 13.9316 23.8744 13.9891 23.732 14.0398C23.3243 14.1432 22.9795 14.0405 22.6975 13.7319C22.5888 13.6109 22.4944 13.4795 22.4142 13.3378C21.8065 11.9872 21.7819 10.6243 22.3404 9.24912C22.5736 8.71649 22.8692 8.22388 23.2271 7.77129C23.518 7.41085 23.8833 7.17274 24.3231 7.05701Z" fill="#9C5D90"/>
<path fill-rule="evenodd" clip-rule="evenodd" d="M34.9878 7.05641C35.5705 7.04003 35.9853 7.29453 36.2316 7.81995C36.6343 8.62756 36.7821 9.48143 36.675 10.3815C36.5814 11.3178 36.2858 12.1799 35.7883 12.9677C35.5269 13.3112 35.219 13.6026 34.8646 13.8421C34.138 14.2636 33.5592 14.1199 33.1282 13.4111C32.554 12.21 32.4639 10.9702 32.8572 9.69188C33.0912 8.96064 33.4525 8.30382 33.941 7.72143C34.2319 7.40047 34.5809 7.1788 34.9878 7.05641Z" fill="#9C5D90"/>
<path fill-rule="evenodd" clip-rule="evenodd" d="M8.80519 8.78027C8.80699 8.81788 8.79056 8.84251 8.75593 8.85417C8.75413 8.81655 8.77056 8.79192 8.80519 8.78027Z" fill="#CCACC6"/>
<path fill-rule="evenodd" clip-rule="evenodd" d="M8.5591 9.24902C8.5609 9.28663 8.54447 9.31126 8.50984 9.32292C8.50804 9.2853 8.52447 9.26067 8.5591 9.24902Z" fill="#CCACC6"/>
<path fill-rule="evenodd" clip-rule="evenodd" d="M8.06691 10.1846C8.06871 10.2222 8.05228 10.2468 8.01765 10.2585C8.01585 10.2209 8.03228 10.1962 8.06691 10.1846Z" fill="#CCACC6"/>
<path fill-rule="evenodd" clip-rule="evenodd" d="M7.032 12.1553C7.0338 12.1929 7.01737 12.2175 6.98274 12.2292C6.98094 12.1916 6.99737 12.1669 7.032 12.1553Z" fill="#CCACC6"/>
</g>
<defs>
<clipPath id="clip0_156_3483">
<rect width="123.153" height="25" fill="white"/>
</clipPath>
</defs>
</svg>
